<?xml version="1.0" standalone="no"?>
<!DOCTYPE svg PUBLIC "-//W3C//DTD SVG 20010904//EN"
 "http://www.w3.org/TR/2001/REC-SVG-20010904/DTD/svg10.dtd">
<svg version="1.0" xmlns="http://www.w3.org/2000/svg"
 width="1000.000000pt" height="1000.000000pt" viewBox="0 0 1000.000000 1000.000000"
 preserveAspectRatio="xMidYMid meet">
<metadata>
Created by potrace 1.11, written by Peter Selinger 2001-2013
</metadata>
<g transform="translate(0.000000,1000.000000) scale(0.100000,-0.100000)"
fill="#000000" stroke="none">
<path d="M4963 9633 c-17 -49 -42 -117 -56 -153 -19 -51 -85 -231 -142 -388
-2 -7 -5 -16 -6 -20 0 -4 -4 -11 -9 -17 -4 -5 -13 -28 -19 -50 -7 -22 -16 -49
-21 -60 -4 -11 -33 -87 -63 -170 -31 -82 -86 -231 -122 -330 -37 -99 -81 -218
-97 -265 -16 -47 -36 -98 -43 -115 -7 -16 -28 -70 -45 -120 -17 -49 -35 -99
-40 -110 -5 -11 -20 -51 -34 -90 -14 -38 -31 -83 -37 -100 -7 -16 -13 -34 -15
-40 -3 -13 -63 -176 -158 -430 -41 -110 -85 -229 -98 -265 -12 -36 -25 -67
-28 -70 -3 -3 -6 -13 -8 -23 -4 -22 -69 -196 -83 -220 -10 -19 -28 -10 401
-212 91 -43 221 -105 290 -138 69 -33 130 -61 135 -62 6 -2 73 -33 150 -69 77
-37 149 -71 160 -76 28 -14 34 -12 190 64 77 37 146 69 153 70 7 1 18 8 24 14
7 7 16 12 20 12 8 0 52 20 258 117 230 109 257 122 310 146 79 36 234 109 238
112 3 2 -25 79 -120 335 -28 74 -59 160 -70 190 -11 30 -25 71 -33 90 -28 71
-106 281 -185 495 -123 334 -191 518 -200 540 -14 34 -142 379 -145 390 -1 6
-5 17 -8 25 -15 36 -110 287 -117 310 -5 14 -22 61 -38 105 -17 44 -60 159
-95 255 -136 367 -152 410 -157 410 -3 0 -20 -39 -37 -87z"/>
<path d="M2795 8688 c2 -46 6 -182 10 -303 6 -231 11 -417 20 -700 3 -93 8
-262 11 -375 3 -113 6 -218 7 -235 2 -33 10 -37 277 -163 58 -28 150 -71 205
-97 159 -75 236 -111 288 -134 l48 -20 9 22 c13 32 132 350 135 362 1 6 5 17
8 25 7 16 47 125 103 279 19 52 37 97 39 99 7 7 -64 94 -160 197 -11 12 -45
51 -75 86 -30 35 -63 73 -75 84 -11 12 -45 49 -75 84 -30 35 -60 69 -65 75 -6
6 -73 83 -150 171 -77 88 -147 167 -155 176 -8 8 -40 44 -70 79 -30 36 -62 72
-70 81 -8 8 -28 31 -45 50 -124 142 -208 234 -215 237 -5 2 -7 -34 -5 -80z"/>
<path d="M7147 8708 c-31 -35 -67 -76 -82 -93 -14 -16 -47 -54 -73 -84 -26
-30 -56 -64 -67 -76 -11 -11 -34 -36 -50 -55 -17 -19 -77 -89 -135 -154 -58
-65 -122 -139 -142 -163 -21 -25 -68 -79 -105 -120 -38 -42 -73 -81 -78 -87
-6 -6 -39 -45 -75 -86 -36 -41 -68 -77 -71 -80 -3 -3 -38 -43 -79 -89 -40 -46
-88 -100 -106 -120 -24 -25 -32 -42 -28 -56 7 -24 133 -370 174 -475 15 -41
47 -127 71 -190 23 -63 43 -116 44 -118 1 -1 33 12 71 29 38 18 71 33 74 34 3
0 41 18 85 39 44 21 121 58 170 81 50 23 128 60 175 83 47 22 120 56 163 75
42 20 77 39 78 44 3 30 7 139 13 348 8 323 16 575 21 720 2 66 7 230 10 365 3
135 8 255 11 268 7 36 -11 26 -69 -40z"/>
<path d="M562 7893 c2 -5 9 -19 15 -33 18 -40 91 -195 145 -310 27 -58 63
-134 80 -170 91 -194 187 -399 239 -509 33 -68 59 -125 59 -127 0 -2 30 -65
66 -141 37 -76 81 -169 99 -208 18 -38 50 -108 73 -155 44 -92 104 -222 159
-340 53 -114 174 -371 237 -503 31 -64 56 -119 56 -121 0 -2 32 -71 71 -152
123 -258 125 -264 271 -574 22 -47 41 -86 42 -87 1 -1 54 17 117 41 122 46
238 87 254 90 6 1 15 4 20 7 6 4 28 12 50 19 22 7 54 18 70 25 17 7 68 27 115
43 276 98 407 145 425 153 11 5 45 17 75 27 97 31 99 33 52 78 -22 21 -83 84
-135 140 l-96 100 55 150 c31 82 82 221 114 309 32 88 70 192 85 230 14 39 32
88 39 110 11 35 106 293 123 335 4 8 7 17 8 20 1 3 4 12 7 20 22 59 38 107 38
113 0 4 -28 20 -62 36 -75 34 -194 90 -377 177 -73 35 -134 64 -136 64 -2 0
-74 34 -160 75 -87 41 -158 75 -160 75 -1 0 -63 29 -136 64 -157 74 -263 124
-374 176 -44 20 -118 55 -165 77 -47 23 -120 57 -162 77 -143 67 -232 108
-318 148 -47 23 -123 58 -170 80 -47 22 -128 60 -180 85 -52 25 -131 62 -175
83 -110 51 -179 83 -324 152 -130 61 -134 63 -129 51z"/>
<path d="M9355 7860 c-71 -34 -221 -105 -510 -240 -49 -23 -121 -57 -160 -75
-110 -51 -258 -121 -403 -191 -74 -35 -136 -64 -138 -64 -2 0 -75 -34 -161
-75 -86 -41 -157 -75 -159 -75 -2 0 -52 -23 -111 -51 -59 -28 -139 -66 -178
-84 -38 -18 -115 -54 -170 -80 -55 -26 -147 -70 -205 -97 -58 -27 -138 -64
-178 -83 -39 -19 -74 -35 -76 -35 -3 0 -87 -40 -188 -88 -101 -49 -211 -101
-244 -116 l-61 -28 32 -91 c18 -51 41 -117 52 -147 12 -30 42 -113 68 -185 25
-71 64 -177 85 -235 133 -361 195 -532 211 -584 l19 -59 -127 -128 c-69 -70
-130 -134 -134 -141 -6 -9 25 -23 114 -54 99 -34 256 -90 337 -121 8 -3 20 -7
25 -8 6 -2 55 -20 110 -40 55 -20 161 -58 235 -85 74 -26 173 -63 220 -80 47
-18 104 -38 128 -46 l43 -13 33 72 c19 40 55 117 81 172 26 55 63 134 82 175
19 41 54 116 78 165 23 50 59 126 80 170 21 44 55 118 78 165 22 47 60 128 84
180 25 52 61 129 80 170 20 41 52 111 73 155 21 44 55 118 77 165 22 47 55
117 73 155 40 85 119 254 167 355 20 41 53 111 73 155 21 44 55 118 78 165 66
140 132 281 164 350 17 36 48 103 70 150 22 47 57 121 78 165 21 44 57 121 80
170 55 116 81 177 78 180 -2 1 -39 -15 -83 -35z"/>
<path d="M3753 6353 c-16 -39 -162 -437 -238 -648 -23 -66 -64 -176 -89 -245
-52 -138 -55 -148 -56 -155 -1 -3 -7 -20 -15 -39 l-14 -34 779 -780 c581 -581
780 -775 781 -759 3 74 3 2118 1 2142 -3 23 -11 34 -35 45 -18 7 -81 37 -142
65 -60 29 -141 67 -180 85 -38 18 -139 66 -224 106 -84 41 -155 74 -158 74 -2
0 -59 26 -126 59 -167 80 -255 121 -262 121 -3 0 -13 -17 -22 -37z"/>
<path d="M6185 6371 c-22 -11 -110 -52 -195 -92 -85 -39 -211 -98 -279 -130
-68 -33 -125 -59 -126 -59 -2 0 -64 -29 -137 -64 -73 -35 -164 -78 -203 -95
-38 -18 -87 -40 -107 -49 -24 -11 -38 -24 -39 -37 -1 -23 -1 -2157 0 -2166 1
-4 353 343 782 770 l781 777 -36 105 c-21 57 -43 120 -51 139 -20 49 -87 233
-90 245 -1 6 -5 17 -8 25 -16 42 -84 229 -122 335 -95 264 -112 309 -121 312
-5 2 -27 -6 -49 -16z"/>
<path d="M480 5044 c0 -6 410 -407 789 -772 l104 -100 41 15 c22 8 46 16 51
17 6 2 17 6 25 9 37 15 267 99 280 102 8 2 47 16 85 30 39 15 84 32 100 37 39
14 38 13 27 35 -11 21 -45 96 -47 103 -1 3 -20 43 -42 90 -86 178 -143 303
-143 310 0 17 -30 31 -76 35 -27 2 -78 6 -114 9 -36 4 -94 9 -130 11 -36 3
-90 7 -120 10 -115 10 -207 17 -265 20 -33 2 -60 4 -60 5 0 1 -25 3 -55 5
-103 6 -245 16 -280 20 -59 6 -170 12 -170 9z"/>
<path d="M9396 5043 c-4 -4 -86 -12 -171 -18 -44 -3 -105 -7 -135 -10 -30 -2
-91 -7 -135 -10 -44 -3 -98 -7 -120 -9 -36 -4 -186 -15 -260 -21 -69 -5 -221
-18 -240 -20 -11 -1 -29 -3 -41 -4 -16 -1 -33 -27 -79 -123 -32 -68 -82 -175
-113 -238 -30 -63 -62 -134 -72 -156 l-18 -41 31 -11 c18 -5 57 -20 87 -32 30
-11 62 -23 70 -25 22 -5 161 -54 185 -65 11 -6 70 -27 131 -49 l111 -39 119
115 c148 143 613 595 705 685 38 37 69 69 69 72 0 4 -119 3 -124 -1z"/>
<path d="M3520 4743 c-38 -13 -311 -111 -455 -163 -88 -32 -205 -74 -260 -93
-55 -20 -131 -47 -170 -62 -75 -28 -202 -73 -300 -107 -33 -11 -64 -24 -68
-28 -7 -6 29 -90 137 -314 24 -50 76 -158 115 -241 39 -82 75 -157 80 -165 7
-13 139 -15 1075 -18 586 -1 1066 1 1066 4 0 8 -1193 1194 -1200 1193 -3 0
-12 -3 -20 -6z"/>
<path d="M5858 4155 c-329 -327 -598 -597 -598 -600 0 -3 481 -5 1069 -5 1062
0 1070 0 1076 20 4 11 60 130 125 265 66 135 119 246 119 248 0 1 22 47 50
102 49 99 50 100 28 109 -58 22 -452 165 -527 190 -25 8 -83 29 -130 46 -47
18 -130 48 -185 67 -55 19 -109 38 -120 43 -45 19 -302 111 -308 110 -1 0
-271 -268 -599 -595z"/>
<path d="M2050 4213 c-8 -3 -80 -29 -160 -58 -80 -29 -242 -88 -360 -130 -118
-42 -224 -81 -235 -85 -11 -5 -240 -88 -510 -185 -269 -97 -499 -181 -510
-186 -12 -6 -27 -11 -35 -13 -8 -2 -24 -6 -35 -11 -11 -4 -62 -23 -114 -43
-109 -41 -121 -30 114 -111 83 -29 159 -56 170 -61 17 -8 458 -168 675 -245
36 -13 117 -42 180 -65 63 -23 135 -48 160 -56 25 -8 54 -19 65 -24 11 -4 46
-17 78 -29 31 -12 81 -30 110 -41 28 -11 61 -22 72 -25 11 -2 88 -29 170 -61
83 -31 155 -57 160 -59 6 -1 19 -5 30 -9 11 -5 34 -12 50 -18 17 -5 39 -14 50
-19 11 -4 85 -31 165 -59 80 -28 168 -60 195 -70 28 -10 91 -33 140 -51 50
-17 99 -35 110 -40 11 -4 110 -40 220 -79 110 -39 262 -94 337 -122 76 -27
139 -48 141 -46 2 1 10 -2 18 -8 8 -6 22 -14 33 -18 19 -7 21 -5 880 846 l331
328 -1131 0 -1130 0 -19 42 c-10 23 -60 130 -112 237 -52 108 -111 230 -130
271 -75 163 -148 310 -153 309 -3 0 -12 -3 -20 -6z"/>
<path d="M7916 4196 c-9 -14 -16 -28 -16 -30 0 -3 -37 -81 -81 -173 -183 -377
-276 -570 -290 -600 l-14 -33 -1127 0 c-621 0 -1128 -3 -1128 -8 0 -4 17 -22
38 -41 28 -26 773 -758 1098 -1080 l51 -50 149 55 c82 31 169 63 194 71 25 8
119 42 210 75 91 33 172 62 180 65 8 3 62 22 120 43 300 107 368 132 515 185
88 32 237 86 330 120 94 34 249 90 345 124 96 35 182 65 190 68 8 4 20 7 25 8
6 2 71 25 145 53 203 75 613 223 630 227 8 2 58 20 110 41 52 20 164 60 249
90 85 29 156 55 158 57 4 5 -119 54 -252 100 -87 30 -270 97 -315 114 -8 4
-18 7 -22 8 -5 2 -9 3 -10 5 -2 1 -10 3 -18 5 -8 1 -62 21 -120 43 -58 22
-152 56 -210 76 -111 40 -202 73 -235 86 -58 24 -524 190 -534 190 -6 0 -11 5
-11 11 0 5 -4 8 -8 5 -5 -3 -62 15 -128 40 -65 25 -130 50 -144 54 -14 4 -32
11 -41 14 -11 5 -22 -1 -33 -18z"/>
<path d="M4888 3353 c-3 -4 -4 -696 -4 -1538 l1 -1530 115 -3 115 -3 0 1538 0
1538 -112 3 c-61 1 -113 -1 -115 -5z"/>
</g>
</svg>
