<?xml version="1.0" standalone="no"?>
<!DOCTYPE svg PUBLIC "-//W3C//DTD SVG 20010904//EN"
 "http://www.w3.org/TR/2001/REC-SVG-20010904/DTD/svg10.dtd">
<svg version="1.0" xmlns="http://www.w3.org/2000/svg"
 width="16.000000pt" height="16.000000pt" viewBox="0 0 16.000000 16.000000"
 preserveAspectRatio="xMidYMid meet">
<metadata>
Created by potrace 1.11, written by Peter Selinger 2001-2013
</metadata>
<g transform="translate(0.000000,16.000000) scale(0.002492,-0.002492)"
fill="#000000" stroke="none">
<path d="M800 4004 l-800 -799 797 -797 c439 -439 801 -798 805 -798 4 0 365
358 804 795 718 717 798 794 813 781 9 -8 363 -360 786 -783 424 -422 778
-774 788 -782 16 -13 90 58 817 785 l800 799 -799 797 c-440 439 -802 798
-805 798 -2 0 -363 -358 -801 -795 -698 -697 -799 -794 -813 -783 -9 7 -363
359 -787 781 -423 423 -778 775 -787 784 -17 15 -72 -38 -818 -783z"/>
</g>
</svg>
