<svg xmlns="http://www.w3.org/2000/svg" height="627.91" width="1280" viewBox="0 0 1280.0004 627.90997">
  <title>Community Builders</title>
  <g fill="#fdebd1" id="person-1">
    <path d="M761.08 438.3s-3.93 31-1.96 37.68c1.96 6.67 24.72 20.4 24.72 20.4v-18.05s-10.6-5.49-9.81-8.63c.78-3.14 9.81-22.77 9.81-22.77v-8.63h-22.76zM902.29 438.3s3.93 31 1.96 37.68c-1.96 6.67-24.72 20.4-24.72 20.4v-18.05s10.59-5.49 9.81-8.63c-.79-3.14-9.81-22.77-9.81-22.77v-8.63h22.76z" transform="translate(0 -72.532)"/>
    <path d="M841.79 304.2h-20.13c-5.69 0-10.34 4.65-10.34 10.34v20.53l-6.81 8.9h6.81v17.91c0 3.9 2.18 7.31 5.38 9.07v6.51h29.55v-6.26c3.47-1.68 5.88-5.22 5.88-9.32v-47.34c0-5.69-4.65-10.34-10.34-10.34" transform="translate(0 -72.532)"/>
  </g>

  <g fill="#fdebd1" id="person-2">
    <path d="M973.6 256.488h-18.59c-6.23 0-11.33 5.1-11.33 11.33v9.39l-7.45 9.73h7.45v9.39c0 6.23 5.1 11.33 11.33 11.33h2.93v12.18h22.65v-14.63c2.63-2.08 4.33-5.28 4.33-8.88v-28.51c0-6.23-5.09-11.33-11.32-11.33M1093.4 395.358c-5.3 0-9.7-4.36-9.7-9.74s4.4-9.74 9.7-9.74c5.4 0 9.8 4.36 9.8 9.74s-4.4 9.74-9.8 9.74"/>
    <path d="M901.11 558.54l31.79-59.77v-41.53h-12.76v17.47l-25.78 80.97zM1005.6 519.82l12.8-21.05v-41.53h-12.8v57.57z" transform="translate(0 -72.532)"/>
    <path d="M906.67 556.77c0 5.38-4.36 9.74-9.73 9.74-5.38 0-9.74-4.36-9.74-9.74s4.36-9.74 9.74-9.74c5.37 0 9.73 4.36 9.73 9.74" transform="translate(0 -72.532)"/>
  </g>

  <g fill="#fdebd1" id="person-3">
    <path d="M1082.5 346.12c5.8-2.67 4.5-8.99 1.4-8.99-.5 0-1 .06-1.4.15v-14.09c0-5.19-4.2-9.44-9.4-9.44h-15.5c-5.2 0-9.4 4.25-9.4 9.44v9.22l-7.5 9.74h7.5v14.58c0 5.19 4.2 9.43 9.4 9.43h5v18.12h22.7v-36.95h-2.8v-1.21z" transform="translate(0 -72.532)"/>
    <path d="M1030.8 547.03c0 5.38-4.3 9.74-9.7 9.74s-9.7-4.36-9.7-9.74 4.3-9.74 9.7-9.74 9.7 4.36 9.7 9.74" transform="translate(0 -72.532)"/>
  </g>

  <path fill="#dae1e7" d="M1148.3 451.96v175.95h55.2V451.96z"/>
  <path fill="#6daae2" d="M1187.2 326.128h-22.6s-18.5 1.87-18.5 24.21v49.12l-51.6-16.42-2.8 6.75 54.4 28.95v43.3h3.8l-6.5 20.53 6.7 2.87 12.5-23.4h43.1v-111.7c0-22.34-18.5-24.21-18.5-24.21"/>

  <g fill="#fdebd1" id="person-4">
    <path d="M1186.9 329.02h-22c-6.3 0-11.4 5.1-11.4 11.33v14.4l-7.4 9.74h7.4v14.22c0 6.12 5 11.14 11.1 11.31v8.64h22.6v-8.64c6.1-.17 11-5.19 11-11.31v-38.36c0-6.23-5.1-11.33-11.3-11.33" transform="translate(0 -72.3)"/>
    <path d="M1155.7 556.2c0 5.37-4.4 9.73-9.7 9.73-5.4 0-9.8-4.36-9.8-9.73 0-5.38 4.4-9.74 9.8-9.74 5.3 0 9.7 4.36 9.7 9.74" transform="translate(0 -72.532)"/>
  </g>

  <path fill="#fff8e4" d="M148.14 74.449c0 40.823-33.094 73.917-73.917 73.917-40.824 0-73.917-33.094-73.917-73.917S33.399.532 74.223.532c40.823 0 73.917 33.094 73.917 73.917" transform="translate(945 -.532)"/>
  <path fill="#62164a" d="M1104.7 218.49h-9.6v-2.15c0-2.29.1-4.58 0-6.87 0-.42-.5-.83-.8-1.25-.3.39-.6.76-.7 1.18-.1.71 0 1.45 0 2.17v7.64h-7.9c-.1.86-.2 1.59-.3 2.31-.2.04-.3.07-.4.1-.3-.49-.5-.97-.7-1.24-2.7.15-5.3.3-8.2.47-.5.5-1.3 1.31-2.2 2.04-.1.08-.8-.32-.9-.62-.2-.54-.2-1.17-.2-1.76-1.1 2.35-2.1 4.43-5.3 3.96.1 1.57-.8 1.72-1.9 1.55-1.5-.2-2.9-.6-4.3-.68-3.5-.2-7-.24-10.4-.42-.7-.03-1.3-.33-1.9-.57-1.6-.62-3.2-1.28-4.9-1.98-.1-.4-.2-.99-.2-1.66h-9.6c-.2.6-.3 1.17-.4 1.7-2.6.28-5.5-.98-6.1-2.51-3.6-.35-7.2-.71-10.7-1.06-.5-1.26-1.8-1.79-2.9-1.21-1.5.76-2.9 1.51-4.7 2.45v6.78c-.1.01-.2.03-.3.05-.3-.7-.6-1.41-1-2.2-1.4 0-2.9-.05-4.3.02-1.3.06-2.4 0-2.6-1.72h-18.59v-32.1c-8.02-.2-15.87-.4-23.92-.6-.04-.84-.1-2.07-.17-3.39-.58-.03-1.05-.07-1.52-.07-1.87-.01-3.74.04-5.61-.05-.3-.01-.59-.6-.86-.94-.02-.03.11-.19.19-.33.48-.05 1-.1 1.49-.16v-4.52c-.9-.08-1.65-.15-2.4-.21-.04-.99-.08-1.82-.11-2.45l-3.69-1.22c-1.72 2-4.4.06-6.62 1.2v2.99l-2.14.3v4.19c.16.07.33.11.47.21.37.26.73.54 1.1.82-.41.21-.85.66-1.22.6-1.36-.2-2.71-.54-4.04-.88-.53-.13-1.04-.59-1.53-.54-1.76.17-3.55.83-5.26.66-2.89-.29-5.39.94-8.1 1.45-.06.81-.13 1.63-.19 2.42-3.64.54-4.09.12-4.96-4.49-.68-.05-1.39-.1-2.12-.16-.13-.67-.26-1.3-.38-1.87h-15.86v5.35c-1.17.49-2.15.89-3.19 1.32-.08-.74-.15-1.37-.2-1.85-2.84-.37-5.5-.73-8.36-1.11v3.82c-.68.12-1.19.21-1.91.33v22.52c-.17 0-.34 0-.51.01v-6.33c-1.27-.08-2.26-.14-3.42-.22V185.88c0-.54.14-1.16-.06-1.61-.26-.57-.81-1.01-1.23-1.51-.39.43-.78.85-1.23 1.34-2.91-.28-2.91-.28-3.65-1.97-3.42-.24-6.89-.46-10.36-.71-1.29-.1-2.57-.3-3.86-.41-.7-.06-1.41-.01-2.34-.01v16.1c-1.06-.25-1.84-.44-2.33-.56-.49-1.95-.91-3.61-1.32-5.27-.57-.15-1.08-.28-1.65-.43 0-1.75.07-3.44-.02-5.12-.07-1.15.55-2.48-.86-3.4-.25-.16.07-1.28.22-1.93.07-.33.33-.63.51-.94-.38-.1-.77-.29-1.15-.3-1.48-.03-2.95-.01-4.38-.01-.28-3.02-.52-5.72-.79-8.42-.03-.34-.14-.95-.26-.96-1.67-.16-1.06-1.42-1.17-2.32-.12-1.02.52-2.36-1.24-2.65-.12-.02-.15-.65-.21-.99-.29-1.62-.59-3.24-.93-5.16-3.1.42-5.69.77-8.28 1.13l.21.54c-.3.85-.59 1.7-.9 2.61-.87-1.7-1.52-3.01-1.96-3.87-2.47-.57-4.52-1.04-6.66-1.53v-4.82c-.64-.12-1.19-.22-1.8-.33v-4.49c-3.25-.21-4.83-2.55-3.34-4.9.9-1.42.54-2.64.43-3.99h-3.54c0 1.22-.33 2.44.07 3.34.85 1.95 1.2 3.71-.56 5.23-.63.54-1.57.71-2.56 1.13v4.07c-.67.17-1.18.29-1.8.44v3.38h-2.21v-15.97c-4.24-.43-8.28-.83-12.29-1.23-.31 1.68-.31 1.68-2.78 2.14 0 1.58-.15 3.22.04 4.81.21 1.84-.42 2.99-2.14 3.54-1.69.54-2.02 1.67-2.13 3.4-.31 4.85 1.31 9.9-1.4 14.83-.75-.32-1.47-.63-2.19-.94-.8 1.13-2.83 1.34-3.99.41-.27-.22-.75-.22-1.14-.24-1.26-.05-2.53-.05-3.79-.08-.52-.02-1.33-.3-1.52-.07-1.09 1.31-2.11.73-3.37-.25v8.93c-1.04.88-1.71 1.44-2.57 2.17-1.28.24-2.89.53-4.77.88v-25.99h-15.18v-18.1c-1.38 0-2.57.02-3.76-.01-1.31-.03-2.09-.63-2.08-2.04.02-1.99 0-3.98 0-5.97 0-1.93.04-3.86-.03-5.79-.01-.34-.42-.66-.65-1-.22.35-.53.67-.62 1.05-.11.46-.03.96-.03 1.44v10.35h-1.86v-15.12c-1.91.29-1.64-.98-1.64-2.07 0-.43.09-.87-.02-1.26-.16-.54-.47-1.04-.71-1.55-.2.49-.55.99-.56 1.48-.05 3.98-.03 7.96-.03 11.94v6.81c-1.36-.17-3.23.03-3.49-.52-.81-1.73-1.89-.89-2.94-.91-.06.77-.12 1.42-.17 2.1-.31.06-.53.14-.77.16-2.56.2-4.15 1.85-4.15 4.33V168.43c-2.86.24-5.55.5-8.24.68-1.14.08-2.29.01-3.44.02-1.73 0-2.95 1.2-2.96 2.93-.02 1.91-.01 3.82-.01 5.92h-12.33c-.07 1.37-.14 2.54-.23 4.21-3.12-.33-6.02-.65-8.91-.96-.33 3.18-.33 3.18-1.36 3.06-.39-2.74-.78-5.47-1.18-8.2-.01-.1-.15-.18-.29-.34-.54 0-1.14-.01-1.74 0-3.47.07-6.99-.36-10.34 1.01-.41.17-.92.1-1.42.14-.05 1.11-.1 2.11-.15 3.32h-3.5c-3.31 0-3.3 0-3.45 3.31 0 .11-.09.21-.16.38-.53.08-1.09.16-1.84.27v8.6c-1.83 0-3.46-.08-5.08.02-1.92.13-3.83.42-5.75.6-.32.03-.93-.12-.94-.24-.16-1.5-1.3-.91-2.08-.99-.64-.06-1.3-.01-1.98-.01-.17-.72-.31-1.28-.44-1.82-2.12-.45-4.17-.89-6.26-1.33-.19.92-.28 1.36-.4 1.93h-10.04c-.06 1.25-.12 2.37-.18 3.67h-6.42c-.1 1-.18 1.81-.25 2.56-.9.16-2.24.2-2.28.43-.25 1.61-1.41 1.03-2.22 1.05-2.35.06-4.7.02-7.05.02h-4.01v13.57c-.65-.05-1.15-.09-1.81-.14V205h-4.85c-.07-1.13-.12-2.07-.16-2.87-2.15-.45-4.16-.87-6.21-1.31-.09-.99-.17-1.86-.26-2.89h-5.48v-20.99h-30.57v21.28c-1.41.07-2.53.13-3.67.18-.08.8-.15 1.43-.23 2.2h-3.39c-.3 2-.8 3.9-.84 5.8-.13 4.76-.04 9.52-.04 14.29v2.29c-2.56.19-4.87.35-7.37.53v-9.48c0-2.56-2.06-4.62-4.7-4.63-5.07-.02-10.13-.02-15.2.02-.65 0-1.3.29-2.07.49v-3.27h-4.23c-.06 1.32-.12 2.5-.17 3.71-1.11.05-2.06.1-2.99.15-.1.55-.18 1-.26 1.45-.28-.71-.26-1.4-.28-2.09-.12-5.7-.24-11.4-.36-16.99-1.04-.3-1.59-.46-2.48-.71-1.13-32.01-2.26-64.01-3.4-96.225 1.21 0 1.98.002 2.75 0 3.42-.01 4.4-1.54 3.21-4.557.47-.885.83-1.805.98-2.758.13-.824.23-1.749-.02-2.514-.54-1.697-1.21-3.378-2.04-4.95-.37-.691-1.27-1.099-1.92-1.636l.24-.377-2.17-.217c-.04-.572-.08-1.041-.1-1.511-.03-1.6.25-3.229-1.1-4.571-.46-.456-.73-1.308-.73-1.981-.06-7.174-.06-14.348 0-21.522 0-.622.32-1.365.74-1.839 1.29-1.465 1.25-2.31-.02-3.73-.57-.628-1.01-1.57-1.07-2.402-.22-2.82-.14-5.663-.37-8.481-.22-2.715.37-5.404-.04-8.137-.34-2.213-.24-4.496-.3-6.749-.1-3.825-.18-7.652-.24-11.478-.04-2.05-.01-4.101-.01-6.407-.57.32-.74.366-.75.428-.35 3.745-.81 7.486-1 11.24-.17 3.492-.07 6.998-.04 10.498.02 2.26-.48 4.456-.38 6.768.19 4.134-.24 8.302-.53 12.447-.06.773-.53 1.663-1.08 2.225-1.27 1.279-1.42 2.387-.39 3.79.38.522.7 1.237.71 1.865.05 7.234.03 14.469.02 21.703 0 .454.01 1.078-.26 1.333-1.18 1.106-1.46 2.44-1.36 3.958.05.829.01 1.664.01 2.549l-1.64.182c-3.1 3.642-6 7.193-3.86 11.66-.14 1.555-.51 2.717-.27 3.732.34 1.406 1.7 1.498 2.97 1.446.94-.04 1.88-.007 3.03-.007a2033.59 2033.59 0 0 1-3.68 97.105c-1.21.35-2.17.63-3.52 1.03-.33-.94-.73-2.05-.94-2.63-1.57-.27-2.85-.49-4.19-.71-.07 1.03-.12 1.79-.17 2.64-1.22.08-2.32.15-3.61.24v13.84l-3.05.16c-.06.93-.11 1.74-.16 2.49-1.41.43-3.24-.63-3.81 1.5-.02.07-.34.08-.52.08h-10.82v-17.74c-2.78.33-4.91-.17-5.26-3.21-3.83-.44-4.46-.09-5.07 2.81-.87.05-1.75.11-2.88.18v15.37c-4.42-2.05-8.64-4.08-12.92-5.97-9.48-4.16-19.39-5.45-29.68-4.36-5.96.64-11.45 2.65-16.85 5.08-.46.2-1.37.46-1.43.34-.75-1.38-1.47-.28-2.04.05-1.86 1.08-3.64 2.27-5.58 3.5-.16-.77-.28-1.32-.4-1.89-.87-.05-1.64-.1-2.59-.15v-8.19h-12.76v2.05c0 5.79.02 11.57-.02 17.36 0 .54-.4 1.08-.61 1.62-.31-.47-.63-.94-1.07-1.61h-5.23v-15.43h-12.01c0-2.16-.01-4.08 0-6 .01-1.56-.54-2.53-2.3-2.38-.72.06-1.45.01-2.17.01-2.21-.01-3.28-.8-3.85-2.73-3.92-.75-3.46-3.9-3.67-6.2-1.36-.61-2.43-1.14-3.54-1.58-.59-.24-1.24-.41-1.88-.44-1.5-.06-3.03.12-4.51-.06-1.75-.22-2.19 1.2-2.59 2.15-.49 1.22-.46 2.69-.49 4.05-.07 2.99-.02 5.99-.02 9.02h-2.56l-.34-2.16h-13.85v-11.39c-.8-.11-1.46-.15-2.09-.29-.5-.11-1.05-.23-1.42-.54-1.14-.91-2.02-2.19-3.7-2.2-.28-.01-.56-.14-.84-.21-1.61-.41-3.22-.83-4.94-1.27-.08 1.43-.15 2.71-.22 3.99-.85.07-1.49.13-2.32.21v23.64c-1.18.43-2.15.93-3.16 1.1-1.09.18-2.24.04-3.46.04 0 3.58-.06 6.89.03 10.2.03 1.28-.1 2.24-1.77 2.25v2.74c-.2.06-.4.13-.6.2-.33-.75-.67-1.5-1.02-2.3-.52-.05-1.1-.12-1.69-.18V200.3c0-10.62.83-21.27-.69-31.86-.01-.1-.14-.19-.38-.49h-4.27c-.49-.97-.7-2.1-1.19-2.24-1.48-.4-3.06-.41-4.69-.59l-.24 2.54c-1.02.05-1.96.1-2.96.15.23 2.52-1.91 1.09-3 1.93v52.54h-2.29v-8.52c-.71-.12-1.23-.2-1.79-.29-.07-.9-.12-1.73-.19-2.71-1.17.47-2.39-1.98-3.48.97-.22-1.44-.34-2.26-.44-2.89-.98.16-1.82.29-2.65.44-.45.08-1.21.1-1.29.33-.59 1.7-1.94 1.61-3.25 1.45-2.19-.26-3.7.55-4.66 2.68-.24-.67-.3-1.28-.3-1.88 0-10.19.1-20.38-.05-30.57-.05-3.78-.68-7.55-1.04-11.29-1.15-.08-1.91-.13-2.67-.18-.08-.87-.16-1.64-.23-2.37h-3.87c-.08.83-.15 1.53-.23 2.31-1.42.07-2.77.13-4.14.2-.06 1.13-.11 2.07-.14 2.52-1.92.81-3.49 1.48-4.48 1.9-.75 2.24-1.31 3.9-1.93 5.75h-3.98c-.9 1.95-1.63 3.55-2.39 5.21-.62.04-1.27.09-2.1.16v35.3c-.87.08-1.56.14-2.34.21-.05.98-.1 1.86-.15 2.81h-1.75c-.08-.78-.15-1.41-.23-2.1h-14.2l-.23 2.39c-.56-.44-1.23-.81-1.18-.97.71-2.35-1.9-3.73-1.52-6.02-3.55 0-6.92 0-10.29.01-.28 0-.79.09-.82.22-.35 1.53-1.56.98-2.47 1.01-1.73.06-3.46.02-5.37.02v4.52c-2.06.23-3.95.45-5.94.68H0v16.86h1280v-21.95h-175.3z" transform="translate(0 387.468)"/>

  <path fill="#dae1e7" d="M935.39 544.02v156.42h67.71V544.02z" transform="translate(0 -72.532)"/>
  <path fill="#6daae2" d="M1046.3 524.5v175.94h55.2V524.5zM982.57 326.07h-8.01v-4.65h-16.9s-9.6.28-9.6 9.59 10.74 7.88 10.74 7.88h15.76v13.85s1.64-3.15 5.33-3.15c1.47 0 2.54 1.4 2.67 3.15 0 0 7.17 1.11 7.17-6.62v-14.33s.86-5.72-7.16-5.72" transform="translate(0 -72.532)"/>
  <path fill="#62164a" d="M980.59 392.37h-22.65s-45.66 1.29-45.66 39.95v24.92h20.62v86.78H1005.6v-86.78h20.7v-24.92c0-38.66-45.71-39.95-45.71-39.95" transform="translate(0 -72.532)"/>
  <path fill="#ffb000" d="M891.38 398.66c-7.06-15.31-44.63-21.2-44.63-21.2H816.7s-37.57 5.89-44.63 21.2c-7.07 15.3-10.99 39.64-10.99 39.64h22.76v78.1H879.61v-78.1h22.76s-3.92-24.34-10.99-39.64" transform="translate(0 -72.532)"/>
  <path fill="#6daae2" d="M790.91 516.4v184.04h81.63V516.4z" transform="translate(0 -72.532)"/>
  <path fill="#62164a" d="M839.18 298.18h-27.86s-3.41.26-3.41 6.02c0 5.75 0 8.11 3.41 8.11 3.4 0 3.4-.03 3.4-.03s9.81-.36 8.89 15.73v.2c.45-.12.94-.2 1.48-.2 2.89 0 4.12 5.95-1.48 8.31v11.31h28.52v-37.28s0-12.17-12.95-12.17" transform="translate(0 -72.532)"/>
  <path fill="#ffb000" d="M1088.3 384.29H1062.6s-21.9-1.79-21.9 17.97v81.63l-25.6 55.85 16.7 7.3 12.6-22.53h65.8V402.26c0-19.76-21.9-17.97-21.9-17.97M1188.3 345.06s1.8-17.52 17.6-17.52c15.7 0 18.3 18.32 18.3 18.32v29.35s-.1 9.43 6.5 10.72c0 0-42.4 14.13-42.4-21.39v-19.48z" transform="translate(0 -72.532)"/>

  <path fill="#ffb000" d="M1186.9 329.02h-22c-2.8 0-5.3.98-7.2 2.6 2.1 4.57 7.4 15.36 14.9 25.06.8-.92 2.3-2.17 4.6-2.17 2.8 0 4.2 5.03.3 8 6 6.41 13 11.47 20.7 12.5v-34.66c0-6.23-5.1-11.33-11.3-11.33" transform="translate(0 -72.532)"/>
  <path fill="#62164a" d="M1102 333.8c0-31.79-21.8-29.57-36.7-29.57-14.8 0-17.1 12.96-17.1 12.96s2.3 12.68 21.4 15.22h8.9v7.88s1.7-3.16 5.4-3.16 4.9 8.88-5.4 10.03v14.1s-3.1 24.67 31.5 24.67c0 0-8-5.45-8-52.13M819.29 617.52h87.38v26.35h51.95v27.26h67.68v-37.5h162v-53.35h91.7v120.16H729.29v-29.31h90zM39.29 667.63h56v10.41h11v-22.41h34v27.95h27.12v16.86H0v-44.81h39.29z" transform="translate(0 -72.532)"/>
  <path fill="#dae1e7" d="M772.29 222.13h-14.61c-.74-5.73-5.62-10.17-11.56-10.17-.6 0-1.18.06-1.76.15-.93-8.98-8.51-15.98-17.74-15.98-7.88 0-14.56 5.12-16.92 12.22-1.86-.99-3.99-1.55-6.24-1.55-7.37 0-13.34 5.96-13.34 13.33 0 .68.07 1.34.17 2h-4c-2.66 0-4.83 2.17-4.83 4.83s2.17 4.84 4.83 4.84h86c2.66 0 4.83-2.18 4.83-4.84s-2.17-4.83-4.83-4.83M1234.3 244.78h-3.3c.2-1.07.3-2.17.3-3.3 0-10.72-8.7-19.42-19.4-19.42-3.1 0-6.1.76-8.7 2.08-4-6.59-11.2-11.01-19.5-11.01-10.9 0-20.1 7.78-22.2 18.12-.9-.16-1.7-.26-2.6-.26-7.6 0-13.8 6.18-13.8 13.79h-8.1c-3.2 0-5.9 2.67-5.9 5.93 0 3.25 2.7 5.92 5.9 5.92h97.3c3.3 0 6-2.67 6-5.92 0-3.26-2.7-5.93-6-5.93M1146.5 158.82h-6.2c.3-.95.5-1.95.5-3 0-5.66-4.6-10.25-10.3-10.25-.3 0-.7.02-1 .05v-.05c0-11.32-9.2-20.5-20.5-20.5-10.3 0-18.8 7.59-20.2 17.47-1.2-.29-2.4-.47-3.7-.47-8.2 0-14.8 6.66-14.8 14.88 0 .64 0 1.26.1 1.87h-8.4a4.5 4.5 0 0 0 0 9h84.5a4.5 4.5 0 0 0 0-9M878.52 180.14h-3.39c.27-.9.42-1.85.42-2.84 0-5.52-4.47-9.99-9.98-9.99-1.8 0-3.49.48-4.95 1.32-1.87-4.7-6.45-8.02-11.81-8.02-6.55 0-11.93 4.94-12.64 11.29-.67-.21-1.37-.32-2.1-.32a7.016 7.016 0 0 0-6.85 8.56h-1.48c-1.24 0-2.25 1.02-2.25 2.26s1.01 2.26 2.25 2.26h52.78c1.25 0 2.26-1.02 2.26-2.26s-1.01-2.26-2.26-2.26" transform="translate(0 -72.532)"/>
</svg>
