<svg xmlns="http://www.w3.org/2000/svg" height="627.91" width="1280" version="1.1" viewBox="0 0 1280.0004 627.90997">
  <title>Community Builders</title>
  <path transform="translate(0 -72.532)" d="m935.39 544.02v156.42h67.71v-156.42z" fill="#dae1e7"/>
  <path transform="translate(0 -72.532)" d="m790.91 516.4v184.04h81.63v-184.04z" fill="#6daae2"/>
  <g fill="#fdebd1">
    <g class="human">
      <path d="m761.08 438.3s-3.93 31-1.96 37.68c1.96 6.67 24.72 20.4 24.72 20.4v-18.05s-10.6-5.49-9.81-8.63c0.78-3.14 9.81-22.77 9.81-22.77v-8.63h-22.76zm141.21 0s3.93 31 1.96 37.68c-1.96 6.67-24.72 20.4-24.72 20.4v-18.05s10.59-5.49 9.81-8.63c-0.79-3.14-9.81-22.77-9.81-22.77v-8.63h22.76z" transform="translate(0 -72.532)"/>
      <path d="m841.79 304.2h-20.13c-5.69 0-10.34 4.65-10.34 10.34v20.53l-6.81 8.9h6.81v17.91c0 3.9 2.18 7.31 5.38 9.07v6.51h29.55v-6.26c3.47-1.68 5.88-5.22 5.88-9.32v-47.34c0-5.69-4.65-10.34-10.34-10.34" transform="translate(0 -72.532)"/>
    </g>
    <g class="human">
      <path d="m973.6 256.49h-18.59c-6.23 0-11.33 5.1-11.33 11.33v9.39l-7.45 9.73h7.45v9.39c0 6.23 5.1 11.33 11.33 11.33h2.93v12.18h22.65v-14.63c2.63-2.08 4.33-5.28 4.33-8.88v-28.51c0-6.23-5.09-11.33-11.32-11.33m119.8 138.87c-5.3 0-9.7-4.36-9.7-9.74s4.4-9.74 9.7-9.74c5.4 0 9.8 4.36 9.8 9.74s-4.4 9.74-9.8 9.74"/>
      <path d="m901.11 558.54l31.79-59.77v-41.53h-12.76v17.47l-25.78 80.97zm104.49-38.72l12.8-21.05v-41.53h-12.8v57.57z" transform="translate(0 -72.532)"/>
      <path d="m906.67 556.77c0 5.38-4.36 9.74-9.73 9.74-5.38 0-9.74-4.36-9.74-9.74s4.36-9.74 9.74-9.74c5.37 0 9.73 4.36 9.73 9.74" transform="translate(0 -72.532)"/>
    </g>
    <g class="human">
      <path d="m1082.5 346.12c5.8-2.67 4.5-8.99 1.4-8.99-0.5 0-1 0.06-1.4 0.15v-14.09c0-5.19-4.2-9.44-9.4-9.44h-15.5c-5.2 0-9.4 4.25-9.4 9.44v9.22l-7.5 9.74h7.5v14.58c0 5.19 4.2 9.43 9.4 9.43h5v18.12h22.7v-36.95h-2.8v-1.21z" transform="translate(0 -72.532)"/>
      <path d="m1030.8 547.03c0 5.38-4.3 9.74-9.7 9.74s-9.7-4.36-9.7-9.74 4.3-9.74 9.7-9.74 9.7 4.36 9.7 9.74" transform="translate(0 -72.532)"/>
    </g>
  </g>
  <path d="m1148.3 451.96v175.95h55.2v-175.95z" fill="#dae1e7"/>
  <path d="m1187.2 326.13h-22.6s-18.5 1.87-18.5 24.21v49.12l-51.6-16.42-2.8 6.75 54.4 28.95v43.3h3.8l-6.5 20.53 6.7 2.87 12.5-23.4h43.1v-111.7c0-22.34-18.5-24.21-18.5-24.21" fill="#6daae2"/>
  <g class="human" fill="#fdebd1">
    <path d="m1186.9 329.02h-22c-6.3 0-11.4 5.1-11.4 11.33v14.4l-7.4 9.74h7.4v14.22c0 6.12 5 11.14 11.1 11.31v8.64h22.6v-8.64c6.1-0.17 11-5.19 11-11.31v-38.36c0-6.23-5.1-11.33-11.3-11.33" transform="translate(0 -72.3)"/>
    <path d="m1155.7 556.2c0 5.37-4.4 9.73-9.7 9.73-5.4 0-9.8-4.36-9.8-9.73 0-5.38 4.4-9.74 9.8-9.74 5.3 0 9.7 4.36 9.7 9.74" transform="translate(0 -72.532)"/>
  </g>
  <path transform="translate(945 -.532)" d="m148.14 74.449c0 40.823-33.094 73.917-73.917 73.917-40.824 0-73.917-33.094-73.917-73.917s33.089-73.917 73.913-73.917c40.823 0 73.917 33.094 73.917 73.917" fill="#fff8e4"/>
  <path transform="translate(0 -72.532)" d="m1046.3 524.5v175.94h55.2v-175.94zm-63.73-198.43h-8.01v-4.65h-16.9s-9.6 0.28-9.6 9.59 10.74 7.88 10.74 7.88h15.76v13.85s1.64-3.15 5.33-3.15c1.47 0 2.54 1.4 2.67 3.15 0 0 7.17 1.11 7.17-6.62v-14.33s0.86-5.72-7.16-5.72" fill="#6daae2"/>
  <path transform="translate(0 -72.532)" d="m980.59 392.37h-22.65s-45.66 1.29-45.66 39.95v24.92h20.62v86.78h72.7v-86.78h20.7v-24.92c0-38.66-45.71-39.95-45.71-39.95" fill="#62164a"/>
  <path transform="translate(0 -72.532)" d="m891.38 398.66c-7.06-15.31-44.63-21.2-44.63-21.2h-30.05s-37.57 5.89-44.63 21.2c-7.07 15.3-10.99 39.64-10.99 39.64h22.76v78.1h95.77v-78.1h22.76s-3.92-24.34-10.99-39.64" fill="#ffb000"/>
  <path transform="translate(0 -72.532)" d="m839.18 298.18h-27.86s-3.41 0.26-3.41 6.02c0 5.75 0 8.11 3.41 8.11 3.4 0 3.4-0.03 3.4-0.03s9.81-0.36 8.89 15.73v0.2c0.45-0.12 0.94-0.2 1.48-0.2 2.89 0 4.12 5.95-1.48 8.31v11.31h28.52v-37.28s0-12.17-12.95-12.17" fill="#62164a"/>
  <path transform="translate(0 -72.532)" d="m1088.3 384.29h-25.7s-21.9-1.79-21.9 17.97v81.63l-25.6 55.85 16.7 7.3 12.6-22.53h65.8v-122.25c0-19.76-21.9-17.97-21.9-17.97m100-39.23s1.8-17.52 17.6-17.52c15.7 0 18.3 18.32 18.3 18.32v29.35s-0.1 9.43 6.5 10.72-42.4 14.13-42.4-21.39v-19.48z" fill="#ffb000"/>
  <path transform="translate(0 -72.532)" d="m1186.9 329.02h-22c-2.8 0-5.3 0.98-7.2 2.6 2.1 4.57 7.4 15.36 14.9 25.06 0.8-0.92 2.3-2.17 4.6-2.17 2.8 0 4.2 5.03 0.3 8 6 6.41 13 11.47 20.7 12.5v-34.66c0-6.23-5.1-11.33-11.3-11.33" fill="#ffb000"/>
  <path d="m1102 333.8c0-31.79-21.8-29.57-36.7-29.57-14.8 0-17.1 12.96-17.1 12.96s2.3 12.68 21.4 15.22h8.9v7.88s1.7-3.16 5.4-3.16 4.9 8.88-5.4 10.03v14.1s-3.1 24.67 31.5 24.67c0 0-8-5.45-8-52.13" transform="translate(0,-72.532)" fill="#62164a"/>
  <path transform="translate(0 -72.532)" d="m772.29 222.13h-14.61c-0.74-5.73-5.62-10.17-11.56-10.17-0.6 0-1.18 0.06-1.76 0.15-0.93-8.98-8.51-15.98-17.74-15.98-7.88 0-14.56 5.12-16.92 12.22-1.86-0.99-3.99-1.55-6.24-1.55-7.37 0-13.34 5.96-13.34 13.33 0 0.68 0.07 1.34 0.17 2h-4c-2.66 0-4.83 2.17-4.83 4.83s2.17 4.84 4.83 4.84h86c2.66 0 4.83-2.18 4.83-4.84s-2.17-4.83-4.83-4.83m462.01 22.65h-3.3c0.2-1.07 0.3-2.17 0.3-3.3 0-10.72-8.7-19.42-19.4-19.42-3.1 0-6.1 0.76-8.7 2.08-4-6.59-11.2-11.01-19.5-11.01-10.9 0-20.1 7.78-22.2 18.12-0.9-0.16-1.7-0.26-2.6-0.26-7.6 0-13.8 6.18-13.8 13.79h-8.1c-3.2 0-5.9 2.67-5.9 5.93 0 3.25 2.7 5.92 5.9 5.92h97.3c3.3 0 6-2.67 6-5.92 0-3.26-2.7-5.93-6-5.93m-87.8-85.96h-6.2c0.3-0.95 0.5-1.95 0.5-3 0-5.66-4.6-10.25-10.3-10.25-0.3 0-0.7 0.02-1 0.05v-0.05c0-11.32-9.2-20.5-20.5-20.5-10.3 0-18.8 7.59-20.2 17.47-1.2-0.29-2.4-0.47-3.7-0.47-8.2 0-14.8 6.66-14.8 14.88 0 0.64 0 1.26 0.1 1.87h-8.4a4.5 4.5 0 0 0 0 9h84.5a4.5 4.5 0 0 0 0 -9m-267.98 21.32h-3.39c0.27-0.9 0.42-1.85 0.42-2.84 0-5.52-4.47-9.99-9.98-9.99-1.8 0-3.49 0.48-4.95 1.32-1.87-4.7-6.45-8.02-11.81-8.02-6.55 0-11.93 4.94-12.64 11.29-0.67-0.21-1.37-0.32-2.1-0.32a7.016 7.016 0 0 0 -6.85 8.56h-1.48c-1.24 0-2.25 1.02-2.25 2.26s1.01 2.26 2.25 2.26h52.78c1.25 0 2.26-1.02 2.26-2.26s-1.01-2.26-2.26-2.26" fill="#dae1e7"/>
  <path transform="translate(0 387.47)" d="m1104.7 218.49h-9.6v-2.15c0-2.29 0.1-4.58 0-6.87 0-0.42-0.5-0.83-0.8-1.25-0.3 0.39-0.6 0.76-0.7 1.18-0.1 0.71 0 1.45 0 2.17v7.64h-7.9c-0.1 0.86-0.2 1.59-0.3 2.31-0.2 0.04-0.3 0.07-0.4 0.1-0.3-0.49-0.5-0.97-0.7-1.24-2.7 0.15-5.3 0.3-8.2 0.47-0.5 0.5-1.3 1.31-2.2 2.04-0.1 0.08-0.8-0.32-0.9-0.62-0.2-0.54-0.2-1.17-0.2-1.76-1.1 2.35-2.1 4.43-5.3 3.96 0.1 1.57-0.8 1.72-1.9 1.55-1.5-0.2-2.9-0.6-4.3-0.68-3.5-0.2-7-0.24-10.4-0.42-0.7-0.03-1.3-0.33-1.9-0.57-1.6-0.62-3.2-1.28-4.9-1.98-0.1-0.4-0.2-0.99-0.2-1.66h-9.6c-0.2 0.6-0.3 1.17-0.4 1.7-2.6 0.28-5.5-0.98-6.1-2.51-3.6-0.35-7.2-0.71-10.7-1.06-0.5-1.26-1.8-1.79-2.9-1.21-1.5 0.76-2.9 1.51-4.7 2.45v6.78c-0.1 0.01-0.2 0.03-0.3 0.05-0.3-0.7-0.6-1.41-1-2.2-1.4 0-2.9-0.05-4.3 0.02-1.3 0.06-2.4 0-2.6-1.72h-18.59v-32.1c-8.02-0.2-15.87-0.4-23.92-0.6-0.04-0.84-0.1-2.07-0.17-3.39-0.58-0.03-1.05-0.07-1.52-0.07-1.87-0.01-3.74 0.04-5.61-0.05-0.3-0.01-0.59-0.6-0.86-0.94-0.02-0.03 0.11-0.19 0.19-0.33 0.48-0.05 1-0.1 1.49-0.16v-4.52c-0.9-0.08-1.65-0.15-2.4-0.21-0.04-0.99-0.08-1.82-0.11-2.45l-3.69-1.22c-1.72 2-4.4 0.06-6.62 1.2v2.99l-2.14 0.3v4.19c0.16 0.07 0.33 0.11 0.47 0.21 0.37 0.26 0.73 0.54 1.1 0.82-0.41 0.21-0.85 0.66-1.22 0.6-1.36-0.2-2.71-0.54-4.04-0.88-0.53-0.13-1.04-0.59-1.53-0.54-1.76 0.17-3.55 0.83-5.26 0.66-2.89-0.29-5.39 0.94-8.1 1.45-0.06 0.81-0.13 1.63-0.19 2.42-3.64 0.54-4.09 0.12-4.96-4.49-0.68-0.05-1.39-0.1-2.12-0.16-0.13-0.67-0.26-1.3-0.38-1.87h-15.86v5.35c-1.17 0.49-2.15 0.89-3.19 1.32-0.08-0.74-0.15-1.37-0.2-1.85-2.84-0.37-5.5-0.73-8.36-1.11v3.82c-0.68 0.12-1.19 0.21-1.91 0.33v22.52c-0.17 0-0.34 0-0.51 0.01v-6.33c-1.27-0.08-2.26-0.14-3.42-0.22v-21.83c0-0.54 0.14-1.16-0.06-1.61-0.26-0.57-0.81-1.01-1.23-1.51-0.39 0.43-0.78 0.85-1.23 1.34-2.91-0.28-2.91-0.28-3.65-1.97-3.42-0.24-6.89-0.46-10.36-0.71-1.29-0.1-2.57-0.3-3.86-0.41-0.7-0.06-1.41-0.01-2.34-0.01v16.1c-1.06-0.25-1.84-0.44-2.33-0.56-0.49-1.95-0.91-3.61-1.32-5.27-0.57-0.15-1.08-0.28-1.65-0.43 0-1.75 0.07-3.44-0.02-5.12-0.07-1.15 0.55-2.48-0.86-3.4-0.25-0.16 0.07-1.28 0.22-1.93 0.07-0.33 0.33-0.63 0.51-0.94-0.38-0.1-0.77-0.29-1.15-0.3-1.48-0.03-2.95-0.01-4.38-0.01-0.28-3.02-0.52-5.72-0.79-8.42-0.03-0.34-0.14-0.95-0.26-0.96-1.67-0.16-1.06-1.42-1.17-2.32-0.12-1.02 0.52-2.36-1.24-2.65-0.12-0.02-0.15-0.65-0.21-0.99-0.29-1.62-0.59-3.24-0.93-5.16-3.1 0.42-5.69 0.77-8.28 1.13l0.21 0.54c-0.3 0.85-0.59 1.7-0.9 2.61-0.87-1.7-1.52-3.01-1.96-3.87-2.47-0.57-4.52-1.04-6.66-1.53v-4.82c-0.64-0.12-1.19-0.22-1.8-0.33v-4.49c-3.25-0.21-4.83-2.55-3.34-4.9 0.9-1.42 0.54-2.64 0.43-3.99h-3.54c0 1.22-0.33 2.44 0.07 3.34 0.85 1.95 1.2 3.71-0.56 5.23-0.63 0.54-1.57 0.71-2.56 1.13v4.07c-0.67 0.17-1.18 0.29-1.8 0.44v3.38h-2.21v-15.97c-4.24-0.43-8.28-0.83-12.29-1.23-0.31 1.68-0.31 1.68-2.78 2.14 0 1.58-0.15 3.22 0.04 4.81 0.21 1.84-0.42 2.99-2.14 3.54-1.69 0.54-2.02 1.67-2.13 3.4-0.31 4.85 1.31 9.9-1.4 14.83-0.75-0.32-1.47-0.63-2.19-0.94-0.8 1.13-2.83 1.34-3.99 0.41-0.27-0.22-0.75-0.22-1.14-0.24-1.26-0.05-2.53-0.05-3.79-0.08-0.52-0.02-1.33-0.3-1.52-0.07-1.09 1.31-2.11 0.73-3.37-0.25v8.93c-1.04 0.88-1.71 1.44-2.57 2.17-1.28 0.24-2.89 0.53-4.77 0.88v-25.99h-15.18v-18.1c-1.38 0-2.57 0.02-3.76-0.01-1.31-0.03-2.09-0.63-2.08-2.04 0.02-1.99 0-3.98 0-5.97 0-1.93 0.04-3.86-0.03-5.79-0.01-0.34-0.42-0.66-0.65-1-0.22 0.35-0.53 0.67-0.62 1.05-0.11 0.46-0.03 0.96-0.03 1.44v10.35h-1.86v-15.12c-1.91 0.29-1.64-0.98-1.64-2.07 0-0.43 0.09-0.87-0.02-1.26-0.16-0.54-0.47-1.04-0.71-1.55-0.2 0.49-0.55 0.99-0.56 1.48-0.05 3.98-0.03 7.96-0.03 11.94v6.81c-1.36-0.17-3.23 0.03-3.49-0.52-0.81-1.73-1.89-0.89-2.94-0.91-0.06 0.77-0.12 1.42-0.17 2.1-0.31 0.06-0.53 0.14-0.77 0.16-2.56 0.2-4.15 1.85-4.15 4.33v30.19c-2.86 0.24-5.55 0.5-8.24 0.68-1.14 0.08-2.29 0.01-3.44 0.02-1.73 0-2.95 1.2-2.96 2.93-0.02 1.91-0.01 3.82-0.01 5.92h-12.33c-0.07 1.37-0.14 2.54-0.23 4.21-3.12-0.33-6.02-0.65-8.91-0.96-0.33 3.18-0.33 3.18-1.36 3.06-0.39-2.74-0.78-5.47-1.18-8.2-0.01-0.1-0.15-0.18-0.29-0.34-0.54 0-1.14-0.01-1.74 0-3.47 0.07-6.99-0.36-10.34 1.01-0.41 0.17-0.92 0.1-1.42 0.14-0.05 1.11-0.1 2.11-0.15 3.32h-3.5c-3.31 0-3.3 0-3.45 3.31 0 0.11-0.09 0.21-0.16 0.38-0.53 0.08-1.09 0.16-1.84 0.27v8.6c-1.83 0-3.46-0.08-5.08 0.02-1.92 0.13-3.83 0.42-5.75 0.6-0.32 0.03-0.93-0.12-0.94-0.24-0.16-1.5-1.3-0.91-2.08-0.99-0.64-0.06-1.3-0.01-1.98-0.01-0.17-0.72-0.31-1.28-0.44-1.82-2.12-0.45-4.17-0.89-6.26-1.33-0.19 0.92-0.28 1.36-0.4 1.93h-10.04c-0.06 1.25-0.12 2.37-0.18 3.67h-6.42c-0.1 1-0.18 1.81-0.25 2.56-0.9 0.16-2.24 0.2-2.28 0.43-0.25 1.61-1.41 1.03-2.22 1.05-2.35 0.06-4.7 0.02-7.05 0.02h-4.01v13.57c-0.65-0.05-1.15-0.09-1.81-0.14v-7.1h-4.85c-0.07-1.13-0.12-2.07-0.16-2.87-2.15-0.45-4.16-0.87-6.21-1.31-0.09-0.99-0.17-1.86-0.26-2.89h-5.48v-20.99h-30.57v21.28c-1.41 0.07-2.53 0.13-3.67 0.18-0.08 0.8-0.15 1.43-0.23 2.2h-3.39c-0.3 2-0.8 3.9-0.84 5.8-0.13 4.76-0.04 9.52-0.04 14.29v2.29c-2.56 0.19-4.87 0.35-7.37 0.53v-9.48c0-2.56-2.06-4.62-4.7-4.63-5.07-0.02-10.13-0.02-15.2 0.02-0.65 0-1.3 0.29-2.07 0.49v-3.27h-4.23c-0.06 1.32-0.12 2.5-0.17 3.71-1.11 0.05-2.06 0.1-2.99 0.15-0.1 0.55-0.18 1-0.26 1.45-0.28-0.71-0.26-1.4-0.28-2.09-0.12-5.7-0.24-11.4-0.36-16.99-1.04-0.3-1.59-0.46-2.48-0.71-1.13-32.01-2.26-64.01-3.4-96.225 1.21 0 1.98 0.002 2.75 0 3.42-0.01 4.4-1.54 3.21-4.557 0.47-0.885 0.83-1.805 0.98-2.758 0.13-0.824 0.23-1.749-0.02-2.514-0.54-1.697-1.21-3.378-2.04-4.95-0.37-0.691-1.27-1.099-1.92-1.636l0.24-0.377-2.17-0.217c-0.04-0.572-0.08-1.041-0.1-1.511-0.03-1.6 0.25-3.229-1.1-4.571-0.46-0.456-0.73-1.308-0.73-1.981-0.06-7.174-0.06-14.348 0-21.522 0-0.622 0.32-1.365 0.74-1.839 1.29-1.465 1.25-2.31-0.02-3.73-0.57-0.628-1.01-1.57-1.07-2.402-0.22-2.82-0.14-5.663-0.37-8.481-0.22-2.715 0.37-5.404-0.04-8.137-0.34-2.213-0.24-4.496-0.3-6.749-0.1-3.825-0.18-7.652-0.24-11.478-0.04-2.05-0.01-4.101-0.01-6.407-0.57 0.32-0.74 0.366-0.75 0.428-0.35 3.745-0.81 7.486-1 11.24-0.17 3.492-0.07 6.998-0.04 10.498 0.02 2.26-0.48 4.456-0.38 6.768 0.19 4.134-0.24 8.302-0.53 12.447-0.06 0.773-0.53 1.663-1.08 2.225-1.27 1.279-1.42 2.387-0.39 3.79 0.38 0.522 0.7 1.237 0.71 1.865 0.05 7.234 0.03 14.469 0.02 21.703 0 0.454 0.01 1.078-0.26 1.333-1.18 1.106-1.46 2.44-1.36 3.958 0.05 0.829 0.01 1.664 0.01 2.549l-1.64 0.182c-3.1 3.642-6 7.193-3.86 11.66-0.14 1.555-0.51 2.717-0.27 3.732 0.34 1.406 1.7 1.498 2.97 1.446 0.94-0.04 1.88-0.007 3.03-0.007a2033.6 2033.6 0 0 1 -3.68 97.105c-1.21 0.35-2.17 0.63-3.52 1.03-0.33-0.94-0.73-2.05-0.94-2.63-1.57-0.27-2.85-0.49-4.19-0.71-0.07 1.03-0.12 1.79-0.17 2.64-1.22 0.08-2.32 0.15-3.61 0.24v13.84l-3.05 0.16c-0.06 0.93-0.11 1.74-0.16 2.49-1.41 0.43-3.24-0.63-3.81 1.5-0.02 0.07-0.34 0.08-0.52 0.08h-10.82v-17.74c-2.78 0.33-4.91-0.17-5.26-3.21-3.83-0.44-4.46-0.09-5.07 2.81-0.87 0.05-1.75 0.11-2.88 0.18v15.37c-4.42-2.05-8.64-4.08-12.92-5.97-9.48-4.16-19.39-5.45-29.68-4.36-5.96 0.64-11.45 2.65-16.85 5.08-0.46 0.2-1.37 0.46-1.43 0.34-0.75-1.38-1.47-0.28-2.04 0.05-1.86 1.08-3.64 2.27-5.58 3.5-0.16-0.77-0.28-1.32-0.4-1.89-0.87-0.05-1.64-0.1-2.59-0.15v-8.19h-12.76v2.05c0 5.79 0.02 11.57-0.02 17.36 0 0.54-0.4 1.08-0.61 1.62-0.31-0.47-0.63-0.94-1.07-1.61h-5.23v-15.43h-12.01c0-2.16-0.01-4.08 0-6 0.01-1.56-0.54-2.53-2.3-2.38-0.72 0.06-1.45 0.01-2.17 0.01-2.21-0.01-3.28-0.8-3.85-2.73-3.92-0.75-3.46-3.9-3.67-6.2-1.36-0.61-2.43-1.14-3.54-1.58-0.59-0.24-1.24-0.41-1.88-0.44-1.5-0.06-3.03 0.12-4.51-0.06-1.75-0.22-2.19 1.2-2.59 2.15-0.49 1.22-0.46 2.69-0.49 4.05-0.07 2.99-0.02 5.99-0.02 9.02h-2.56l-0.34-2.16h-13.85v-11.39c-0.8-0.11-1.46-0.15-2.09-0.29-0.5-0.11-1.05-0.23-1.42-0.54-1.14-0.91-2.02-2.19-3.7-2.2-0.28-0.01-0.56-0.14-0.84-0.21-1.61-0.41-3.22-0.83-4.94-1.27-0.08 1.43-0.15 2.71-0.22 3.99-0.85 0.07-1.49 0.13-2.32 0.21v23.64c-1.18 0.43-2.15 0.93-3.16 1.1-1.09 0.18-2.24 0.04-3.46 0.04 0 3.58-0.06 6.89 0.03 10.2 0.03 1.28-0.1 2.24-1.77 2.25v2.74c-0.2 0.06-0.4 0.13-0.6 0.2-0.33-0.75-0.67-1.5-1.02-2.3-0.52-0.05-1.1-0.12-1.69-0.18v-20.86c0-10.62 0.83-21.27-0.69-31.86-0.01-0.1-0.14-0.19-0.38-0.49h-4.27c-0.49-0.97-0.7-2.1-1.19-2.24-1.48-0.4-3.06-0.41-4.69-0.59l-0.24 2.54c-1.02 0.05-1.96 0.1-2.96 0.15 0.23 2.52-1.91 1.09-3 1.93v52.54h-2.29v-8.52c-0.71-0.12-1.23-0.2-1.79-0.29-0.07-0.9-0.12-1.73-0.19-2.71-1.17 0.47-2.39-1.98-3.48 0.97-0.22-1.44-0.34-2.26-0.44-2.89-0.98 0.16-1.82 0.29-2.65 0.44-0.45 0.08-1.21 0.1-1.29 0.33-0.59 1.7-1.94 1.61-3.25 1.45-2.19-0.26-3.7 0.55-4.66 2.68-0.24-0.67-0.3-1.28-0.3-1.88 0-10.19 0.1-20.38-0.05-30.57-0.05-3.78-0.68-7.55-1.04-11.29-1.15-0.08-1.91-0.13-2.67-0.18-0.08-0.87-0.16-1.64-0.23-2.37h-3.87c-0.08 0.83-0.15 1.53-0.23 2.31-1.42 0.07-2.77 0.13-4.14 0.2-0.06 1.13-0.11 2.07-0.14 2.52-1.92 0.81-3.49 1.48-4.48 1.9-0.75 2.24-1.31 3.9-1.93 5.75h-3.98c-0.9 1.95-1.63 3.55-2.39 5.21-0.62 0.04-1.27 0.09-2.1 0.16v35.3c-0.87 0.08-1.56 0.14-2.34 0.21-0.05 0.98-0.1 1.86-0.15 2.81h-1.75c-0.08-0.78-0.15-1.41-0.23-2.1h-14.2l-0.23 2.39c-0.56-0.44-1.23-0.81-1.18-0.97 0.71-2.35-1.9-3.73-1.52-6.02-3.55 0-6.92 0-10.29 0.01-0.28 0-0.79 0.09-0.82 0.22-0.35 1.53-1.56 0.98-2.47 1.01-1.73 0.06-3.46 0.02-5.37 0.02v4.52c-2.06 0.23-3.95 0.45-5.94 0.68h-167.41v16.86h1280v-21.95h-175.3z" fill="#62164a"/>
</svg>
