<?xml version="1.0" encoding="UTF-8" standalone="no"?>
<svg width="1280px" height="648px" viewBox="0 0 1280 648" version="1.1" xmlns="http://www.w3.org/2000/svg" xmlns:xlink="http://www.w3.org/1999/xlink">
    <!-- Generator: sketchtool 41.2 (35397) - http://www.bohemiancoding.com/sketch -->
    <title>4AB6723B-7466-47BF-8BDD-FBCAF14F8A68</title>
    <desc>Created with sketchtool.</desc>
    <defs>
        <polygon id="path-1" points="148.1418 0.532 0.3078 0.532 0.3078 148.3658 148.1418 148.3658 148.1418 0.532"></polygon>
        <polygon id="path-3" points="0 0.1176 0 240.4426 1279.9996 240.4426 1279.9996 0.1176 8.13151629e-20 0.1176"></polygon>
        <polygon id="path-5" points="0 720 1280 720 1280 0 0 0"></polygon>
    </defs>
    <g id="Page-1" stroke="none" stroke-width="1" fill="none" fill-rule="evenodd">
        <g id="Home" transform="translate(0.000000, -72.000000)">
            <g id="Illustration" transform="translate(0.000000, -1.000000)">
                <polygon id="Fill-1" fill="#DAE1E7" points="1148.277 700.911 1203.485 700.911 1203.485 524.963 1148.277 524.963"></polygon>
                <g id="Group-43" transform="translate(0.000000, 0.468000)">
                    <g id="Group-4" transform="translate(945.000000, 72.000000)">
                        <mask id="mask-2" fill="white">
                            <use xlink:href="#path-1"></use>
                        </mask>
                        <g id="Clip-3"></g>
                        <path d="M148.1418,74.4488 C148.1418,115.2718 115.0478,148.3658 74.2248,148.3658 C33.4008,148.3658 0.3078,115.2718 0.3078,74.4488 C0.3078,33.6258 33.4008,0.5318 74.2248,0.5318 C115.0478,0.5318 148.1418,33.6258 148.1418,74.4488" id="Fill-2" fill="#FFF8E4" mask="url(#mask-2)"></path>
                    </g>
                    <g id="Group-7" transform="translate(0.000000, 460.000000)">
                        <mask id="mask-4" fill="white">
                            <use xlink:href="#path-3"></use>
                        </mask>
                        <g id="Clip-6"></g>
                        <path d="M1104.6606,218.4926 L1095.1136,218.4926 C1095.1136,217.6446 1095.1136,216.9936 1095.1126,216.3436 C1095.1116,214.0526 1095.1526,211.7606 1095.0716,209.4716 C1095.0566,209.0456 1094.5536,208.6356 1094.2766,208.2186 C1094.0356,208.6116 1093.6536,208.9816 1093.5836,209.4036 C1093.4676,210.1076 1093.5506,210.8456 1093.5506,211.5686 L1093.5506,219.2056 L1085.6636,219.2056 C1085.5566,220.0686 1085.4656,220.7966 1085.3756,221.5246 C1085.2446,221.5566 1085.1136,221.5886 1084.9816,221.6206 C1084.7166,221.1336 1084.4516,220.6466 1084.3036,220.3766 C1081.5706,220.5346 1079.0206,220.6826 1076.1476,220.8496 C1075.6206,221.3456 1074.7986,222.1646 1073.9016,222.8916 C1073.8066,222.9696 1073.0866,222.5696 1072.9796,222.2746 C1072.7846,221.7336 1072.8296,221.1046 1072.7756,220.5126 C1071.6576,222.8556 1070.6656,224.9406 1067.4816,224.4716 C1067.6236,226.0386 1066.6696,226.1876 1065.5556,226.0246 C1064.1336,225.8156 1062.7286,225.4196 1061.3026,225.3376 C1057.8276,225.1366 1054.3436,225.0956 1050.8666,224.9246 C1050.2246,224.8926 1049.5836,224.5936 1048.9666,224.3526 C1047.3706,223.7286 1045.7896,223.0696 1044.0636,222.3676 C1044.0146,221.9656 1043.9426,221.3816 1043.8606,220.7056 L1034.2596,220.7056 C1034.1376,221.3146 1034.0246,221.8786 1033.9176,222.4096 C1031.2856,222.6866 1028.3986,221.4276 1027.8186,219.9016 C1024.1926,219.5456 1020.6216,219.1946 1017.0556,218.8446 C1016.5976,217.5816 1015.3206,217.0476 1014.1946,217.6346 C1012.7476,218.3896 1011.2996,219.1406 1009.4996,220.0756 L1009.4996,226.8556 C1009.4126,226.8736 1009.3256,226.8916 1009.2376,226.9096 C1008.8976,226.2066 1008.5576,225.5046 1008.1736,224.7106 C1006.7626,224.7106 1005.3186,224.6566 1003.8796,224.7266 C1002.6176,224.7876 1001.5096,224.7316 1001.3416,223.0116 L982.7056,223.0116 L982.7056,190.9076 C974.6886,190.7086 966.8376,190.5136 958.7926,190.3136 C958.7496,189.4716 958.6866,188.2376 958.6186,186.9176 C958.0426,186.8916 957.5716,186.8546 957.1006,186.8516 C955.2316,186.8436 953.3606,186.8906 951.4946,186.8016 C951.1896,186.7866 950.9046,186.1966 950.6296,185.8566 C950.6066,185.8266 950.7356,185.6746 950.8236,185.5326 C951.3036,185.4816 951.8166,185.4266 952.3086,185.3736 L952.3086,180.8496 C951.4146,180.7716 950.6616,180.7046 949.9136,180.6386 C949.8686,179.6466 949.8316,178.8176 949.8036,178.1906 C948.4656,177.7476 947.2876,177.3576 946.1096,176.9686 C944.3926,178.9666 941.7066,177.0296 939.4946,178.1706 L939.4946,181.1556 C938.7076,181.2666 938.0706,181.3576 937.3486,181.4596 L937.3486,185.6486 C937.5126,185.7196 937.6836,185.7646 937.8206,185.8596 C938.1946,186.1206 938.5546,186.4036 938.9206,186.6786 C938.5116,186.8946 938.0686,187.3396 937.6986,187.2846 C936.3376,187.0826 934.9946,186.7366 933.6566,186.3996 C933.1316,186.2676 932.6176,185.8146 932.1316,185.8606 C930.3666,186.0256 928.5806,186.6946 926.8686,186.5206 C923.9796,186.2256 921.4826,187.4556 918.7676,187.9706 C918.7066,188.7826 918.6446,189.6046 918.5846,190.3946 C914.9386,190.9296 914.4876,190.5146 913.6196,185.9006 C912.9386,185.8496 912.2336,185.7966 911.5046,185.7416 C911.3666,185.0676 911.2386,184.4436 911.1216,183.8726 L895.2646,183.8726 L895.2646,189.2216 C894.0876,189.7096 893.1116,190.1136 892.0736,190.5436 C891.9926,189.7976 891.9236,189.1656 891.8716,188.6936 C889.0286,188.3156 886.3686,187.9626 883.5126,187.5836 L883.5126,191.4026 C882.8326,191.5206 882.3206,191.6096 881.6006,191.7346 L881.6006,214.2466 C881.4306,214.2496 881.2606,214.2526 881.0906,214.2556 L881.0906,207.9276 C879.8206,207.8476 878.8286,207.7856 877.6716,207.7126 L877.6716,205.4116 C877.6726,198.9006 877.6736,192.3896 877.6736,185.8796 C877.6736,185.3376 877.8126,184.7246 877.6066,184.2716 C877.3486,183.7006 876.8036,183.2606 876.3816,182.7636 C875.9896,183.1866 875.5986,183.6106 875.1496,184.0966 C872.2386,183.8156 872.2386,183.8156 871.4976,182.1266 C868.0846,181.8946 864.6106,181.6726 861.1386,181.4156 C859.8496,181.3206 858.5686,181.1166 857.2796,181.0116 C856.5796,180.9546 855.8706,181.0016 854.9356,181.0016 L854.9356,197.1046 C853.8836,196.8506 853.0956,196.6606 852.6066,196.5426 C852.1176,194.5856 851.7016,192.9256 851.2876,191.2716 C850.7166,191.1236 850.2116,190.9926 849.6396,190.8446 C849.6396,189.0896 849.7086,187.4016 849.6156,185.7216 C849.5506,184.5706 850.1746,183.2396 848.7566,182.3166 C848.5096,182.1566 848.8336,181.0436 848.9786,180.3886 C849.0516,180.0556 849.3126,179.7646 849.4896,179.4546 C849.1056,179.3496 848.7236,179.1636 848.3376,179.1546 C846.8636,179.1186 845.3876,179.1396 843.9606,179.1396 C843.6816,176.1246 843.4366,173.4226 843.1726,170.7216 C843.1386,170.3806 843.0276,169.7676 842.9076,169.7556 C841.2366,169.5976 841.8456,168.3386 841.7396,167.4366 C841.6216,166.4246 842.2566,165.0766 840.5026,164.7906 C840.3816,164.7706 840.3546,164.1446 840.2916,163.7996 C839.9966,162.1796 839.7046,160.5596 839.3566,158.6416 C836.2576,159.0626 833.6696,159.4146 831.0816,159.7666 C831.1496,159.9476 831.2186,160.1276 831.2866,160.3086 C830.9936,161.1596 830.6996,162.0116 830.3866,162.9216 C829.5246,161.2156 828.8666,159.9116 828.4316,159.0506 C825.9616,158.4836 823.9126,158.0136 821.7736,157.5226 L821.7736,152.7006 C821.1256,152.5826 820.5756,152.4816 819.9716,152.3706 L819.9716,150.0996 L819.9716,147.8756 C816.7156,147.6676 815.1376,145.3266 816.6266,142.9786 C817.5296,141.5556 817.1706,140.3366 817.0626,138.9936 L813.5216,138.9936 C813.5216,140.2066 813.1936,141.4296 813.5896,142.3346 C814.4416,144.2826 814.7946,146.0446 813.0286,147.5596 C812.4036,148.0966 811.4636,148.2666 810.4686,148.6886 L810.4686,152.7636 C809.7956,152.9266 809.2896,153.0486 808.6696,153.1976 L808.6696,156.5846 L806.4646,156.5846 L806.4646,140.6066 C802.2246,140.1846 798.1816,139.7826 794.1726,139.3836 C793.8586,141.0556 793.8586,141.0556 791.3896,141.5166 C791.3896,143.1036 791.2436,144.7386 791.4276,146.3346 C791.6406,148.1696 791.0136,149.3186 789.2946,149.8706 C787.5996,150.4146 787.2696,151.5446 787.1586,153.2686 C786.8476,158.1206 788.4706,163.1666 785.7636,168.1026 C785.0056,167.7766 784.2866,167.4676 783.5656,167.1566 C782.7676,168.2896 780.7426,168.5026 779.5796,167.5656 C779.3096,167.3476 778.8276,167.3466 778.4406,167.3326 C777.1786,167.2846 775.9146,167.2826 774.6526,167.2476 C774.1286,167.2336 773.3246,166.9456 773.1286,167.1816 C772.0396,168.4896 771.0206,167.9056 769.7576,166.9336 L769.7576,175.8616 C768.7196,176.7386 768.0506,177.3036 767.1916,178.0306 C765.9126,178.2656 764.3006,178.5626 762.4166,178.9096 L762.4166,152.9226 L747.2376,152.9226 L747.2376,134.8196 C745.8626,134.8196 744.6696,134.8446 743.4776,134.8126 C742.1716,134.7776 741.3896,134.1796 741.4006,132.7666 C741.4156,130.7776 741.4036,128.7876 741.4036,126.7986 C741.4036,124.8696 741.4366,122.9396 741.3726,121.0126 C741.3616,120.6726 740.9466,120.3456 740.7186,120.0126 C740.5036,120.3606 740.1896,120.6846 740.0996,121.0616 C739.9916,121.5186 740.0726,122.0206 740.0726,122.5026 L740.0726,132.8456 L738.2056,132.8456 L738.2056,117.7316 C736.2966,118.0166 736.5706,116.7486 736.5716,115.6566 C736.5716,115.2346 736.6616,114.7856 736.5486,114.3966 C736.3926,113.8576 736.0826,113.3636 735.8386,112.8506 C735.6436,113.3446 735.2856,113.8366 735.2796,114.3326 C735.2326,118.3116 735.2526,122.2906 735.2526,126.2686 L735.2526,133.0806 C733.8856,132.9066 732.0226,133.1086 731.7606,132.5556 C730.9456,130.8276 729.8716,131.6686 728.8196,131.6516 C728.7566,132.4186 728.7026,133.0666 728.6476,133.7496 C728.3416,133.8136 728.1156,133.8876 727.8846,133.9056 C725.3166,134.1086 723.7336,135.7576 723.7326,138.2446 L723.7326,166.0966 L723.7326,168.4276 C720.8666,168.6706 718.1786,168.9266 715.4856,169.1126 C714.3456,169.1916 713.1956,169.1236 712.0496,169.1266 C710.3246,169.1316 709.1036,170.3266 709.0856,172.0636 C709.0666,173.9716 709.0816,175.8796 709.0816,177.9836 L696.7486,177.9836 C696.6756,179.3516 696.6126,180.5226 696.5236,182.1916 C693.4006,181.8556 690.4996,181.5436 687.6086,181.2326 C687.2816,184.4066 687.2816,184.4066 686.2536,184.2856 C685.8626,181.5466 685.4746,178.8176 685.0746,176.0916 C685.0606,175.9936 684.9246,175.9136 684.7796,175.7526 C684.2436,175.7526 683.6426,175.7436 683.0416,175.7546 C679.5696,175.8176 676.0536,175.3926 672.7016,176.7626 C672.2906,176.9306 671.7816,176.8566 671.2816,176.8986 C671.2306,178.0056 671.1846,179.0066 671.1296,180.2166 L667.6286,180.2166 C664.3246,180.2166 664.3256,180.2166 664.1816,183.5296 C664.1766,183.6366 664.0936,183.7416 664.0176,183.9126 C663.4906,183.9906 662.9286,184.0746 662.1806,184.1846 L662.1806,192.7826 C660.3486,192.7826 658.7186,192.7016 657.0996,192.8046 C655.1776,192.9256 653.2666,193.2226 651.3476,193.4016 C651.0316,193.4316 650.4236,193.2776 650.4096,193.1576 C650.2456,191.6616 649.1146,192.2496 648.3316,192.1706 C647.6866,192.1056 647.0286,192.1576 646.3516,192.1576 C646.1776,191.4376 646.0416,190.8766 645.9106,190.3356 C643.7876,189.8866 641.7436,189.4536 639.6546,189.0126 C639.4626,189.9286 639.3686,190.3726 639.2496,190.9366 L629.2136,190.9366 C629.1496,192.1906 629.0926,193.3086 629.0266,194.6126 L622.6076,194.6126 C622.5116,195.6126 622.4326,196.4226 622.3596,197.1726 C621.4646,197.3296 620.1166,197.3676 620.0796,197.6046 C619.8346,199.2096 618.6746,198.6286 617.8596,198.6496 C615.5106,198.7116 613.1576,198.6716 610.8056,198.6716 L606.7976,198.6716 L606.7976,212.2426 C606.1516,212.1916 605.6506,212.1526 604.9856,212.0996 L604.9856,205.0006 L600.1356,205.0006 C600.0746,203.8676 600.0246,202.9296 599.9816,202.1326 C597.8276,201.6796 595.8176,201.2556 593.7736,200.8246 C593.6816,199.8326 593.6006,198.9606 593.5066,197.9336 L588.0286,197.9336 L588.0286,176.9386 L557.4606,176.9386 L557.4606,198.2196 C556.0456,198.2906 554.9276,198.3476 553.7886,198.4046 C553.7066,199.1986 553.6416,199.8316 553.5616,200.6036 L550.1736,200.6036 C549.8666,202.6046 549.3746,204.4956 549.3256,206.3986 C549.2046,211.1586 549.2866,215.9226 549.2866,220.6856 L549.2866,222.9836 C546.7286,223.1676 544.4196,223.3346 541.9206,223.5146 L541.9206,214.0336 C541.9196,211.4656 539.8586,209.4096 537.2156,209.4006 C532.1506,209.3826 527.0856,209.3786 522.0206,209.4166 C521.3716,209.4216 520.7236,209.7146 519.9456,209.9066 L519.9456,206.6386 L515.7166,206.6386 C515.6566,207.9606 515.6036,209.1406 515.5486,210.3466 C514.4356,210.4036 513.4866,210.4516 512.5616,210.4986 C512.4636,211.0486 512.3836,211.4986 512.3036,211.9486 C512.0236,211.2426 512.0356,210.5506 512.0216,209.8596 C511.9046,204.1596 511.7816,198.4606 511.6636,192.8686 C510.6166,192.5686 510.0686,192.4116 509.1776,192.1566 C508.0466,160.1506 506.9156,128.1496 505.7776,95.9346 C506.9876,95.9346 507.7596,95.9366 508.5316,95.9346 C511.9546,95.9246 512.9276,94.3946 511.7386,91.3776 C512.2146,90.4926 512.5686,89.5726 512.7186,88.6196 C512.8476,87.7956 512.9476,86.8706 512.7026,86.1056 C512.1576,84.4086 511.4946,82.7276 510.6616,81.1556 C510.2946,80.4646 509.3936,80.0566 508.7356,79.5196 C508.8176,79.3936 508.8996,79.2686 508.9816,79.1426 C508.2836,79.0726 507.5846,79.0026 506.8106,78.9256 C506.7736,78.3536 506.7256,77.8846 506.7146,77.4146 C506.6796,75.8146 506.9586,74.1856 505.6096,72.8436 C505.1516,72.3876 504.8806,71.5356 504.8756,70.8626 C504.8236,63.6886 504.8246,56.5146 504.8756,49.3406 C504.8806,48.7186 505.2026,47.9756 505.6196,47.5016 C506.9086,46.0366 506.8716,45.1916 505.5976,43.7716 C505.0336,43.1436 504.5906,42.2016 504.5266,41.3696 C504.3086,38.5496 504.3866,35.7066 504.1576,32.8886 C503.9366,30.1736 504.5336,27.4846 504.1156,24.7516 C503.7766,22.5386 503.8796,20.2556 503.8216,18.0026 C503.7236,14.1776 503.6376,10.3506 503.5756,6.5246 C503.5426,4.4746 503.5696,2.4236 503.5696,0.1176 C503.0026,0.4376 502.8296,0.4836 502.8236,0.5456 C502.4686,4.2906 502.0066,8.0316 501.8216,11.7866 C501.6496,15.2776 501.7496,18.7836 501.7776,22.2836 C501.7956,24.5436 501.3006,26.7396 501.4036,29.0516 C501.5886,33.1856 501.1606,37.3536 500.8666,41.4986 C500.8106,42.2716 500.3426,43.1616 499.7866,43.7236 C498.5196,45.0026 498.3656,46.1106 499.3976,47.5146 C499.7816,48.0356 500.1046,48.7506 500.1086,49.3786 C500.1576,56.6126 500.1446,63.8476 500.1296,71.0816 C500.1286,71.5356 500.1356,72.1596 499.8656,72.4146 C498.6946,73.5206 498.4106,74.8546 498.5086,76.3726 C498.5616,77.2016 498.5176,78.0366 498.5176,78.9216 C497.7446,79.0076 497.1586,79.0726 496.8776,79.1036 C493.7806,82.7456 490.8776,86.2966 493.0156,90.7636 C492.8796,92.3186 492.5106,93.4806 492.7546,94.4956 C493.0926,95.9016 494.4456,95.9936 495.7186,95.9416 C496.6576,95.9026 497.5996,95.9346 498.7516,95.9346 C498.3016,128.5686 497.0466,160.9146 495.0676,193.0376 C493.8556,193.3916 492.9026,193.6706 491.5466,194.0666 C491.2156,193.1326 490.8216,192.0236 490.6136,191.4386 C489.0386,191.1706 487.7586,190.9546 486.4166,190.7266 C486.3496,191.7566 486.2996,192.5216 486.2456,193.3666 C485.0346,193.4466 483.9256,193.5206 482.6416,193.6056 L482.6416,207.4506 C481.5086,207.5096 480.5636,207.5586 479.5916,207.6096 C479.5316,208.5386 479.4796,209.3486 479.4306,210.1006 C478.0156,210.5336 476.1866,209.4696 475.6166,211.5986 C475.5986,211.6666 475.2816,211.6766 475.1046,211.6766 C471.5596,211.6806 468.0146,211.6796 464.2776,211.6796 L464.2776,193.9416 C461.5046,194.2726 459.3686,193.7716 459.0166,190.7306 C455.1856,190.2876 454.5626,190.6386 453.9536,193.5416 C453.0816,193.5946 452.1956,193.6486 451.0656,193.7176 L451.0656,209.0876 C446.6496,207.0436 442.4326,205.0076 438.1476,203.1246 C428.6656,198.9586 418.7596,197.6696 408.4746,198.7636 C402.5146,199.3976 397.0196,201.4126 391.6226,203.8376 C391.1616,204.0446 390.2496,204.2966 390.1866,204.1826 C389.4396,202.7966 388.7166,203.9016 388.1496,204.2306 C386.2946,205.3086 384.5066,206.5006 382.5696,207.7276 C382.4086,206.9646 382.2926,206.4096 382.1726,205.8376 C381.2956,205.7866 380.5336,205.7426 379.5826,205.6866 L379.5826,197.5006 L366.8226,197.5006 C366.8226,198.2486 366.8216,198.8996 366.8226,199.5506 C366.8236,205.3376 366.8426,211.1246 366.8006,216.9116 C366.7956,217.4536 366.4036,217.9926 366.1916,218.5326 C365.8776,218.0606 365.5636,217.5876 365.1166,216.9156 L359.8936,216.9156 L359.8936,201.4916 L347.8796,201.4916 C347.8796,199.3286 347.8696,197.4086 347.8826,195.4886 C347.8926,193.9276 347.3426,192.9596 345.5756,193.1066 C344.8566,193.1666 344.1286,193.1176 343.4056,193.1166 C341.1996,193.1146 340.1266,192.3216 339.5616,190.3926 C335.6396,189.6416 336.0976,186.4946 335.8946,184.1906 C334.5336,183.5766 333.4596,183.0456 332.3486,182.6076 C331.7566,182.3736 331.1056,182.1966 330.4736,182.1696 C328.9686,182.1066 327.4416,182.2936 325.9566,182.1086 C324.2096,181.8916 323.7666,183.3056 323.3736,184.2646 C322.8776,185.4796 322.9056,186.9456 322.8776,188.3076 C322.8146,191.3026 322.8586,194.2986 322.8586,197.3286 L320.2966,197.3286 C320.1876,196.6276 320.0886,195.9876 319.9616,195.1676 L306.1096,195.1676 L306.1096,183.7766 C305.3096,183.6736 304.6516,183.6326 304.0156,183.4926 C303.5236,183.3846 302.9736,183.2576 302.5976,182.9546 C301.4636,182.0436 300.5776,180.7616 298.9016,180.7466 C298.6216,180.7446 298.3426,180.6086 298.0626,180.5376 C296.4506,180.1256 294.8386,179.7136 293.1156,179.2746 C293.0396,180.6986 292.9706,181.9816 292.9026,183.2556 C292.0546,183.3336 291.4136,183.3916 290.5766,183.4686 L290.5766,207.1146 C289.3966,207.5386 288.4336,208.0416 287.4156,208.2086 C286.3256,208.3866 285.1846,208.2486 283.9606,208.2486 C283.9606,211.8306 283.9046,215.1426 283.9886,218.4526 C284.0206,219.7326 283.8946,220.6936 282.2176,220.6976 L282.2176,223.4356 C282.0196,223.5026 281.8216,223.5706 281.6236,223.6376 C281.2886,222.8866 280.9536,222.1366 280.5986,221.3416 C280.0826,221.2866 279.5046,221.2246 278.9116,221.1606 C278.9116,214.1406 278.9146,207.2206 278.9106,200.3006 C278.9056,189.6756 279.7396,179.0316 278.2246,168.4386 C278.2096,168.3376 278.0826,168.2526 277.8416,167.9536 L273.5696,167.9536 C273.0816,166.9826 272.8656,165.8456 272.3756,165.7116 C270.9026,165.3076 269.3226,165.2956 267.6866,165.1206 C267.5986,166.0686 267.5286,166.8236 267.4516,167.6626 C266.4336,167.7136 265.4946,167.7606 264.4866,167.8106 C264.7156,170.3336 262.5806,168.8986 261.4886,169.7366 L261.4886,222.2766 L259.2016,222.2766 L259.2016,213.7596 C258.4936,213.6446 257.9746,213.5596 257.4076,213.4676 C257.3436,212.5656 257.2856,211.7396 257.2166,210.7566 C256.0516,211.2266 254.8276,208.7836 253.7376,211.7276 C253.5196,210.2886 253.3966,209.4736 253.3016,208.8426 C252.3176,209.0036 251.4806,209.1306 250.6476,209.2826 C250.1976,209.3646 249.4396,209.3806 249.3586,209.6126 C248.7726,211.3056 247.4176,211.2206 246.1146,211.0646 C243.9176,210.8026 242.4086,211.6096 241.4486,213.7426 C241.2136,213.0696 241.1536,212.4636 241.1536,211.8566 C241.1476,201.6686 241.2466,191.4786 241.0996,181.2926 C241.0456,177.5136 240.4196,173.7426 240.0566,169.9976 C238.9146,169.9196 238.1476,169.8676 237.3906,169.8166 C237.3056,168.9466 237.2296,168.1846 237.1576,167.4536 L233.2936,167.4536 C233.2096,168.2836 233.1386,168.9816 233.0606,169.7606 C231.6376,169.8276 230.2916,169.8916 228.9226,169.9556 C228.8596,171.0936 228.8076,172.0286 228.7836,172.4766 C226.8626,173.2936 225.2876,173.9626 224.3016,174.3826 C223.5506,176.6176 222.9926,178.2796 222.3726,180.1256 L218.3886,180.1256 C217.4906,182.0846 216.7576,183.6826 215.9996,185.3366 C215.3766,185.3846 214.7306,185.4326 213.9026,185.4956 L213.9026,220.7996 C213.0336,220.8786 212.3396,220.9426 211.5586,221.0146 C211.5076,221.9876 211.4616,222.8676 211.4116,223.8216 L209.6596,223.8216 C209.5756,223.0436 209.5056,222.4056 209.4316,221.7216 L195.2326,221.7216 C195.1636,222.4376 195.1036,223.0746 195.0046,224.1076 C194.4446,223.6656 193.7696,223.2956 193.8156,223.1446 C194.5276,220.7886 191.9166,219.4136 192.2966,217.1226 C188.7526,217.1226 185.3816,217.1176 182.0106,217.1316 C181.7266,217.1326 181.2236,217.2156 181.1936,217.3456 C180.8416,218.8796 179.6306,218.3286 178.7226,218.3606 C176.9936,218.4206 175.2626,218.3776 173.3516,218.3776 L173.3516,222.8986 C171.2906,223.1346 169.4016,223.3496 167.4106,223.5766 L-0.0004,223.5766 L-0.0004,240.4426 L166.9226,240.4426 L167.4106,240.4426 L1104.6606,240.4426 L1104.7086,240.4426 L1279.9996,240.4426 L1279.9996,218.4926 L1104.6606,218.4926 Z" id="Fill-5" fill="#62164A" mask="url(#mask-4)"></path>
                    </g>
                    <path d="M1187.2054,398.6619 L1175.8814,398.6619 L1164.5564,398.6619 C1164.5564,398.6619 1146.0944,400.5319 1146.0944,422.8719 L1146.0944,471.9869 L1094.5344,455.5699 L1091.6704,462.3229 L1146.0944,491.2739 L1146.0944,534.5719 L1149.9194,534.5719 L1143.3824,555.1019 L1150.1354,557.9669 L1162.5804,534.5719 L1175.8814,534.5719 L1205.6674,534.5719 L1205.6674,422.8719 C1205.6674,400.5319 1187.2054,398.6619 1187.2054,398.6619" id="Fill-8" fill="#6DAAE2"></path>
                    <path d="M973.5976,329.0227 L955.0056,329.0227 C948.7766,329.0227 943.6796,334.1187 943.6796,340.3477 L943.6796,349.7367 L936.2336,359.4747 L943.6796,359.4747 L943.6796,368.8637 C943.6796,375.0917 948.7766,380.1887 955.0056,380.1887 L957.9426,380.1887 L957.9426,392.3697 L980.5906,392.3697 L980.5906,377.7437 C983.2216,375.6647 984.9226,372.4557 984.9226,368.8637 L984.9226,340.3477 C984.9226,334.1187 979.8266,329.0227 973.5976,329.0227" id="Fill-10" fill="#FDEBD1"></path>
                    <path d="M1093.441,467.8856 C1088.063,467.8856 1083.703,463.5256 1083.703,458.1476 C1083.703,452.7696 1088.063,448.4096 1093.441,448.4096 C1098.819,448.4096 1103.179,452.7696 1103.179,458.1476 C1103.179,463.5256 1098.819,467.8856 1093.441,467.8856" id="Fill-12" fill="#FDEBD1"></path>
                    <mask id="mask-6" fill="white">
                        <use xlink:href="#path-5"></use>
                    </mask>
                    <g id="Clip-15"></g>
                    <polygon id="Fill-14" fill="#DAE1E7" mask="url(#mask-6)" points="935.393 700.443 1003.141 700.443 1003.141 544.023 935.393 544.023"></polygon>
                    <polygon id="Fill-16" fill="#6DAAE2" mask="url(#mask-6)" points="1046.322 700.443 1101.53 700.443 1101.53 524.495 1046.322 524.495"></polygon>
                    <path d="M982.574,326.066 L974.555,326.066 L974.555,321.416 L957.656,321.416 C957.656,321.416 948.062,321.702 948.062,331.011 C948.062,340.319 958.802,338.887 958.802,338.887 L974.555,338.887 L974.555,352.744 C974.555,352.744 976.197,349.593 979.891,349.593 C981.356,349.593 982.429,350.989 982.557,352.744 C982.557,352.744 989.734,353.848 989.734,346.115 L989.734,331.794 C989.734,331.794 990.593,326.066 982.574,326.066" id="Fill-17" fill="#6DAAE2" mask="url(#mask-6)"></path>
                    <path d="M1186.8958,329.0227 L1164.8668,329.0227 C1158.6378,329.0227 1153.5418,334.1187 1153.5418,340.3477 L1153.5418,354.7487 L1146.0948,364.4867 L1153.5418,364.4867 L1153.5418,378.7057 C1153.5418,384.8307 1158.4708,389.8487 1164.5568,390.0157 L1164.5568,398.6617 L1187.2058,398.6617 L1187.2058,390.0157 C1193.2918,389.8487 1198.2208,384.8307 1198.2208,378.7057 L1198.2208,340.3477 C1198.2208,334.1187 1193.1248,329.0227 1186.8958,329.0227" id="Fill-18" fill="#FDEBD1" mask="url(#mask-6)"></path>
                    <path d="M980.5911,392.3698 L969.2671,392.3698 L957.9431,392.3698 C957.9431,392.3698 912.2831,393.6588 912.2831,432.3238 L912.2831,457.2418 L932.9041,457.2418 L932.9041,544.0238 L969.2671,544.0238 L1005.6301,544.0238 L1005.6301,457.2418 L1026.2511,457.2418 L1026.2511,432.3238 C1026.2511,393.6588 980.5911,392.3698 980.5911,392.3698" id="Fill-19" fill="#62164A" mask="url(#mask-6)"></path>
                    <polygon id="Fill-20" fill="#FDEBD1" mask="url(#mask-6)" points="920.1369 457.2414 920.1369 474.7124 894.3579 555.6754 901.1099 558.5394 932.9039 498.7704 932.9039 457.2414"></polygon>
                    <polygon id="Fill-21" fill="#FDEBD1" mask="url(#mask-6)" points="1005.6299 457.2414 1005.6299 474.7124 1005.6299 514.8094 1005.6299 519.8214 1018.3969 498.7704 1018.3969 457.2414"></polygon>
                    <path d="M906.6732,556.7685 C906.6732,562.1465 902.3132,566.5065 896.9352,566.5065 C891.5572,566.5065 887.1972,562.1465 887.1972,556.7685 C887.1972,551.3905 891.5572,547.0305 896.9352,547.0305 C902.3132,547.0305 906.6732,551.3905 906.6732,556.7685" id="Fill-22" fill="#FDEBD1" mask="url(#mask-6)"></path>
                    <path d="M1030.8485,547.0306 C1030.8485,552.4086 1026.4885,556.7686 1021.1105,556.7686 C1015.7325,556.7686 1011.3725,552.4086 1011.3725,547.0306 C1011.3725,541.6526 1015.7325,537.2926 1021.1105,537.2926 C1026.4885,537.2926 1030.8485,541.6526 1030.8485,547.0306" id="Fill-23" fill="#FDEBD1" mask="url(#mask-6)"></path>
                    <path d="M841.7877,304.1974 L821.6627,304.1974 C815.9717,304.1974 811.3157,308.8534 811.3157,314.5434 L811.3157,335.0724 L804.5127,343.9694 L811.3157,343.9694 L811.3157,361.8814 C811.3157,365.7784 813.4997,369.1884 816.7037,370.9524 L816.7037,377.4614 L846.2467,377.4614 L846.2467,371.1984 C849.7177,369.5234 852.1337,365.9754 852.1337,361.8814 L852.1337,314.5434 C852.1337,308.8534 847.4787,304.1974 841.7877,304.1974" id="Fill-24" fill="#FDEBD1" mask="url(#mask-6)"></path>
                    <path d="M891.3826,398.6556 C884.3186,383.3486 846.7466,377.4616 846.7466,377.4616 L831.7246,377.4616 L816.7036,377.4616 C816.7036,377.4616 779.1316,383.3486 772.0666,398.6556 C765.0026,413.9626 761.0776,438.2966 761.0776,438.2966 L783.8416,438.2966 L783.8416,516.4016 L831.7246,516.4016 L879.6086,516.4016 L879.6086,438.2966 L902.3726,438.2966 C902.3726,438.2966 898.4476,413.9626 891.3826,398.6556" id="Fill-25" fill="#FFB000" mask="url(#mask-6)"></path>
                    <path d="M761.0775,438.2967 C761.0775,438.2967 757.1525,469.3027 759.1155,475.9757 C761.0775,482.6477 783.8415,496.3847 783.8415,496.3847 L783.8415,478.3307 C783.8415,478.3307 773.2445,472.8357 774.0295,469.6957 C774.8145,466.5557 783.8415,446.9317 783.8415,446.9317 L783.8415,438.2967 L761.0775,438.2967 Z" id="Fill-26" fill="#FDEBD1" mask="url(#mask-6)"></path>
                    <path d="M902.2916,438.2967 C902.2916,438.2967 906.2166,469.3027 904.2536,475.9757 C902.2916,482.6477 879.5276,496.3847 879.5276,496.3847 L879.5276,478.3307 C879.5276,478.3307 890.1246,472.8357 889.3396,469.6957 C888.5546,466.5557 879.5276,446.9317 879.5276,446.9317 L879.5276,438.2967 L902.2916,438.2967 Z" id="Fill-27" fill="#FDEBD1" mask="url(#mask-6)"></path>
                    <polygon id="Fill-28" fill="#6DAAE2" mask="url(#mask-6)" points="790.906 700.443 872.543 700.443 872.543 516.401 790.906 516.401"></polygon>
                    <path d="M839.1821,298.1792 L811.3161,298.1792 C811.3161,298.1792 807.9141,298.4412 807.9141,304.1972 C807.9141,309.9542 807.9131,312.3092 811.3161,312.3092 C814.7181,312.3092 814.7181,312.2822 814.7181,312.2822 C814.7181,312.2822 824.5291,311.9162 823.6141,328.0082 L823.6141,328.2122 C824.0591,328.0872 824.5471,328.0082 825.0871,328.0082 C827.9791,328.0082 829.2121,333.9582 823.6141,336.3222 L823.6141,347.6322 L852.1341,347.6322 L852.1341,310.3462 C852.1341,310.3462 852.1341,298.1792 839.1821,298.1792" id="Fill-29" fill="#62164A" mask="url(#mask-6)"></path>
                    <path d="M1088.2684,384.292 L1073.9254,384.292 L1062.6014,384.292 C1062.6014,384.292 1040.7024,382.501 1040.7024,402.264 L1040.7024,483.89 L1015.0694,539.74 L1031.8234,547.043 L1044.4254,524.508 L1073.9254,524.508 L1073.9254,524.508 L1106.4434,524.508 L1110.1674,524.508 L1110.1674,483.89 L1110.1674,415.152 L1110.1674,402.264 C1110.1674,382.501 1088.2684,384.292 1088.2684,384.292" id="Fill-30" fill="#FFB000" mask="url(#mask-6)"></path>
                    <path d="M1188.3386,345.0617 C1188.3386,345.0617 1190.1496,327.5447 1205.8556,327.5447 C1221.5616,327.5447 1224.1756,345.8637 1224.1756,345.8637 L1224.1756,375.2107 C1224.1756,375.2107 1224.0676,384.6367 1230.7276,385.9257 C1230.7276,385.9257 1188.3386,400.0557 1188.3386,364.5387 L1188.3386,345.0617 Z" id="Fill-31" fill="#FFB000" mask="url(#mask-6)"></path>
                    <path d="M1155.6981,556.1957 C1155.6981,561.5737 1151.3381,565.9337 1145.9601,565.9337 C1140.5821,565.9337 1136.2221,561.5737 1136.2221,556.1957 C1136.2221,550.8177 1140.5821,546.4577 1145.9601,546.4577 C1151.3381,546.4577 1155.6981,550.8177 1155.6981,556.1957" id="Fill-32" fill="#FDEBD1" mask="url(#mask-6)"></path>
                    <path d="M1186.8962,329.0227 L1164.8662,329.0227 C1162.1412,329.0227 1159.6312,329.9987 1157.6722,331.6187 C1159.7662,336.1947 1165.0742,346.9817 1172.5762,356.6797 C1173.3802,355.7557 1174.8892,354.5147 1177.2082,354.5147 C1179.9872,354.5147 1181.3712,359.5367 1177.5202,362.5147 C1183.5222,368.9177 1190.5462,373.9827 1198.2212,375.0117 L1198.2212,340.3477 C1198.2212,334.1187 1193.1252,329.0227 1186.8962,329.0227" id="Fill-33" fill="#FFB000" mask="url(#mask-6)"></path>
                    <path d="M1082.5308,346.1155 C1088.3378,343.4505 1086.9738,337.1345 1083.8578,337.1345 C1083.3808,337.1345 1082.9398,337.1885 1082.5308,337.2795 L1082.5308,323.1885 C1082.5308,317.9975 1078.2838,313.7505 1073.0928,313.7505 L1057.5988,313.7505 C1052.4088,313.7505 1048.1618,317.9975 1048.1618,323.1885 L1048.1618,332.4085 L1040.7148,342.1465 L1048.1618,342.1465 L1048.1618,356.7255 C1048.1618,361.9165 1052.4088,366.1635 1057.5988,366.1635 L1062.6148,366.1635 L1062.6148,384.2795 L1085.2628,384.2795 L1085.2628,347.3325 L1082.5308,347.3325 L1082.5308,346.1155 Z" id="Fill-34" fill="#FDEBD1" mask="url(#mask-6)"></path>
                    <path d="M1102.0066,333.7991 C1102.0066,302.0081 1080.2396,304.2311 1065.3466,304.2311 C1050.4526,304.2311 1048.1616,317.1871 1048.1616,317.1871 C1048.1616,317.1871 1050.4526,329.8731 1069.6426,332.4091 L1078.5216,332.4091 L1078.5216,340.2851 C1078.5216,340.2851 1080.1626,337.1341 1083.8576,337.1341 C1087.5526,337.1341 1088.7836,346.0131 1078.5216,347.1591 L1078.5216,361.2591 C1078.5216,361.2591 1075.3706,385.9261 1110.0256,385.9261 C1110.0256,385.9261 1102.0066,380.4841 1102.0066,333.7991" id="Fill-35" fill="#62164A" mask="url(#mask-6)"></path>
                    <polygon id="Fill-36" fill="#62164A" mask="url(#mask-6)" points="729.2896 700.443 729.2896 671.128 819.2896 671.128 819.2896 617.522 906.6736 617.522 906.6736 643.872 926.8686 643.872 958.6196 643.872 958.6196 671.128 1026.2516 671.128 1026.2516 633.628 1188.3386 633.628 1188.3386 580.281 1279.9996 580.281 1279.9996 700.443"></polygon>
                    <polygon id="Fill-37" fill="#62164A" mask="url(#mask-6)" points="0 700.443 0 655.628 39.29 655.628 39.29 667.628 95.29 667.628 95.29 678.036 106.29 678.036 106.29 655.628 140.29 655.628 140.29 683.577 167.411 683.577 167.411 700.443"></polygon>
                    <path d="M772.2896,222.1283 L757.6826,222.1283 C756.9446,216.3953 752.0576,211.9613 746.1226,211.9613 C745.5216,211.9613 744.9356,212.0213 744.3596,212.1093 C743.4326,203.1303 735.8466,196.1283 726.6226,196.1283 C718.7356,196.1283 712.0566,201.2543 709.7036,208.3523 C707.8396,207.3613 705.7146,206.7953 703.4566,206.7953 C696.0926,206.7953 690.1226,212.7643 690.1226,220.1283 C690.1226,220.8103 690.1896,221.4743 690.2896,222.1283 L686.2896,222.1283 C683.6316,222.1283 681.4566,224.3033 681.4566,226.9613 C681.4566,229.6203 683.6316,231.7953 686.2896,231.7953 L772.2896,231.7953 C774.9476,231.7953 777.1226,229.6203 777.1226,226.9613 C777.1226,224.3033 774.9476,222.1283 772.2896,222.1283" id="Fill-38" fill="#DAE1E7" mask="url(#mask-6)"></path>
                    <path d="M1234.3285,244.7823 L1231.0285,244.7823 C1231.2135,243.7083 1231.3185,242.6073 1231.3185,241.4813 C1231.3185,230.7563 1222.6235,222.0613 1211.8985,222.0613 C1208.7625,222.0613 1205.8085,222.8223 1203.1865,224.1433 C1199.2095,217.5513 1192.0005,213.1283 1183.7405,213.1283 C1172.7685,213.1283 1163.6145,220.9053 1161.4865,231.2473 C1160.6425,231.0863 1159.7745,230.9943 1158.8835,230.9943 C1151.2685,230.9943 1145.0955,237.1673 1145.0955,244.7823 L1137.0365,244.7823 C1133.7785,244.7823 1131.1135,247.4473 1131.1135,250.7053 C1131.1135,253.9633 1133.7785,256.6283 1137.0365,256.6283 L1234.3285,256.6283 C1237.5855,256.6283 1240.2515,253.9633 1240.2515,250.7053 C1240.2515,247.4473 1237.5855,244.7823 1234.3285,244.7823" id="Fill-39" fill="#DAE1E7" mask="url(#mask-6)"></path>
                    <path d="M1146.5159,158.8238 L1140.3179,158.8238 C1140.6079,157.8748 1140.7659,156.8678 1140.7659,155.8238 C1140.7659,150.1628 1136.1769,145.5738 1130.5159,145.5738 C1130.1779,145.5738 1129.8439,145.5928 1129.5139,145.6248 C1129.5139,145.6068 1129.5159,145.5908 1129.5159,145.5738 C1129.5159,134.2518 1120.3379,125.0738 1109.0159,125.0738 C1098.7289,125.0738 1090.2359,132.6588 1088.7659,142.5368 C1087.6029,142.2458 1086.3929,142.0738 1085.1409,142.0738 C1076.9259,142.0738 1070.2659,148.7338 1070.2659,156.9488 C1070.2659,157.5858 1070.3189,158.2088 1070.3979,158.8238 L1062.0159,158.8238 C1059.5409,158.8238 1057.5159,160.8488 1057.5159,163.3238 C1057.5159,165.7988 1059.5409,167.8238 1062.0159,167.8238 L1146.5159,167.8238 C1148.9909,167.8238 1151.0159,165.7988 1151.0159,163.3238 C1151.0159,160.8488 1148.9909,158.8238 1146.5159,158.8238" id="Fill-40" fill="#DAE1E7" mask="url(#mask-6)"></path>
                    <path d="M878.5245,180.1406 L875.1315,180.1406 C875.4025,179.2396 875.5525,178.2866 875.5525,177.2966 C875.5525,171.7816 871.0815,167.3106 865.5675,167.3106 C863.7665,167.3106 862.0815,167.7946 860.6225,168.6286 C858.7515,163.9336 854.1675,160.6146 848.8055,160.6146 C842.2645,160.6146 836.8795,165.5526 836.1685,171.9036 C835.5045,171.6946 834.7975,171.5816 834.0655,171.5816 C830.1915,171.5816 827.0515,174.7216 827.0515,178.5956 C827.0515,179.1266 827.1115,179.6436 827.2245,180.1406 L825.7435,180.1406 C824.5015,180.1406 823.4855,181.1566 823.4855,182.3996 C823.4855,183.6416 824.5015,184.6576 825.7435,184.6576 L878.5245,184.6576 C879.7665,184.6576 880.7835,183.6416 880.7835,182.3996 C880.7835,181.1566 879.7665,180.1406 878.5245,180.1406" id="Fill-41" fill="#DAE1E7" mask="url(#mask-6)"></path>
                    <polygon id="Fill-42" fill="#62164A" mask="url(#mask-6)" points="0 720 1280 720 1280 691.621 0 691.621"></polygon>
                </g>
            </g>
        </g>
    </g>
</svg>
